<?xml version="1.0" encoding="utf-8" standalone="no"?>
<!DOCTYPE svg PUBLIC "-//W3C//DTD SVG 1.1//EN"
  "http://www.w3.org/Graphics/SVG/1.1/DTD/svg11.dtd">
<!-- Created with matplotlib (https://matplotlib.org/) -->
<svg height="345.6pt" version="1.1" viewBox="0 0 460.8 345.6" width="460.8pt" xmlns="http://www.w3.org/2000/svg" xmlns:xlink="http://www.w3.org/1999/xlink">
 <defs>
  <style type="text/css">
*{stroke-linecap:butt;stroke-linejoin:round;}
  </style>
 </defs>
 <g id="figure_1">
  <g id="patch_1">
   <path d="M 0 345.6 
L 460.8 345.6 
L 460.8 0 
L 0 0 
z
" style="fill:#ffffff;"/>
  </g>
  <g id="axes_1">
   <g id="patch_2">
    <path d="M 57.6 307.584 
L 414.72 307.584 
L 414.72 41.472 
L 57.6 41.472 
z
" style="fill:#ffffff;"/>
   </g>
   <g id="PolyCollection_1">
    <path clip-path="url(#p97717f363b)" d="M 73.832727 55.822411 
L 73.832727 307.584 
L 75.301752 307.584 
L 76.770777 307.584 
L 78.239803 307.584 
L 79.708828 307.584 
L 81.177853 307.584 
L 82.646878 307.584 
L 84.115903 307.584 
L 85.584928 307.584 
L 87.053953 307.584 
L 88.522978 307.584 
L 89.992003 307.584 
L 91.461028 307.584 
L 92.930053 307.584 
L 94.399079 307.584 
L 95.868104 307.584 
L 97.337129 307.584 
L 98.806154 307.584 
L 100.275179 307.584 
L 101.744204 307.584 
L 103.213229 307.584 
L 104.682254 307.584 
L 106.151279 307.584 
L 107.620304 307.584 
L 109.089329 307.584 
L 110.558355 307.584 
L 112.02738 307.584 
L 113.496405 307.584 
L 114.96543 307.584 
L 116.434455 307.584 
L 117.90348 307.584 
L 119.372505 307.584 
L 120.84153 307.584 
L 122.310555 307.584 
L 123.77958 307.584 
L 125.248606 307.584 
L 126.717631 307.584 
L 128.186656 307.584 
L 129.655681 307.584 
L 131.124706 307.584 
L 132.593731 307.584 
L 134.062756 307.584 
L 135.531781 307.584 
L 137.000806 307.584 
L 138.469831 307.584 
L 139.938856 307.584 
L 141.407882 307.584 
L 142.876907 307.584 
L 144.345932 307.584 
L 145.814957 307.584 
L 147.283982 307.584 
L 148.753007 307.584 
L 150.222032 307.584 
L 151.691057 307.584 
L 153.160082 307.584 
L 154.629107 307.584 
L 156.098132 307.584 
L 157.567158 307.584 
L 159.036183 307.584 
L 160.505208 307.584 
L 161.974233 307.584 
L 163.443258 307.584 
L 164.912283 307.584 
L 166.381308 307.584 
L 167.850333 307.584 
L 169.319358 307.584 
L 170.788383 307.584 
L 172.257408 307.584 
L 173.726434 307.584 
L 175.195459 307.584 
L 176.664484 307.584 
L 178.133509 307.584 
L 179.602534 307.584 
L 181.071559 307.584 
L 182.540584 307.584 
L 184.009609 307.584 
L 185.478634 307.584 
L 186.947659 307.584 
L 188.416684 307.584 
L 189.88571 307.584 
L 191.354735 307.584 
L 192.82376 307.584 
L 194.292785 307.584 
L 195.76181 307.584 
L 197.230835 307.584 
L 198.69986 307.584 
L 200.168885 307.584 
L 201.63791 307.584 
L 203.106935 307.584 
L 204.575961 307.584 
L 206.044986 307.584 
L 207.514011 307.584 
L 208.983036 307.584 
L 210.452061 307.584 
L 211.921086 307.584 
L 213.390111 307.584 
L 214.859136 307.584 
L 216.328161 307.584 
L 217.797186 307.584 
L 219.266211 307.584 
L 220.735237 307.584 
L 222.204262 307.584 
L 223.673287 307.584 
L 225.142312 307.584 
L 226.611337 307.584 
L 228.080362 307.584 
L 229.549387 307.584 
L 231.018412 307.584 
L 232.487437 307.584 
L 233.956462 307.584 
L 235.425487 307.584 
L 236.894513 307.584 
L 238.363538 307.584 
L 239.832563 307.584 
L 241.301588 307.584 
L 242.770613 307.584 
L 244.239638 307.584 
L 245.708663 307.584 
L 247.177688 307.584 
L 248.646713 307.584 
L 250.115738 307.584 
L 251.584763 307.584 
L 253.053789 307.584 
L 254.522814 307.584 
L 255.991839 307.584 
L 257.460864 307.584 
L 258.929889 307.584 
L 260.398914 307.584 
L 261.867939 307.584 
L 263.336964 307.584 
L 264.805989 307.584 
L 266.275014 307.584 
L 267.744039 307.584 
L 269.213065 307.584 
L 270.68209 307.584 
L 272.151115 307.584 
L 273.62014 307.584 
L 275.089165 307.584 
L 276.55819 307.584 
L 278.027215 307.584 
L 279.49624 307.584 
L 280.965265 307.584 
L 282.43429 307.584 
L 283.903316 307.584 
L 285.372341 307.584 
L 286.841366 307.584 
L 288.310391 307.584 
L 289.779416 307.584 
L 291.248441 307.584 
L 292.717466 307.584 
L 294.186491 307.584 
L 295.655516 307.584 
L 297.124541 307.584 
L 298.593566 307.584 
L 300.062592 307.584 
L 301.531617 307.584 
L 303.000642 307.584 
L 304.469667 307.584 
L 305.938692 307.584 
L 307.407717 307.584 
L 308.876742 307.584 
L 310.345767 307.584 
L 311.814792 307.584 
L 313.283817 307.584 
L 314.752842 307.584 
L 316.221868 307.584 
L 317.690893 307.584 
L 319.159918 307.584 
L 320.628943 307.584 
L 322.097968 307.584 
L 323.566993 307.584 
L 325.036018 307.584 
L 326.505043 307.584 
L 327.974068 307.584 
L 329.443093 307.584 
L 330.912118 307.584 
L 332.381144 307.584 
L 333.850169 307.584 
L 335.319194 307.584 
L 336.788219 307.584 
L 338.257244 307.584 
L 339.726269 307.584 
L 341.195294 307.584 
L 342.664319 307.584 
L 344.133344 307.584 
L 345.602369 307.584 
L 347.071394 307.584 
L 348.54042 307.584 
L 350.009445 307.584 
L 351.47847 307.584 
L 352.947495 307.584 
L 354.41652 307.584 
L 355.885545 307.584 
L 357.35457 307.584 
L 358.823595 307.584 
L 360.29262 307.584 
L 361.761645 307.584 
L 363.230671 307.584 
L 364.699696 307.584 
L 366.168721 307.584 
L 367.637746 307.584 
L 369.106771 307.584 
L 370.575796 307.584 
L 372.044821 307.584 
L 373.513846 307.584 
L 374.982871 307.584 
L 376.451896 307.584 
L 377.920921 307.584 
L 379.389947 307.584 
L 380.858972 307.584 
L 382.327997 307.584 
L 383.797022 307.584 
L 385.266047 307.584 
L 386.735072 307.584 
L 388.204097 307.584 
L 389.673122 307.584 
L 391.142147 307.584 
L 392.611172 307.584 
L 394.080197 307.584 
L 395.549223 307.584 
L 397.018248 307.584 
L 398.487273 307.584 
L 398.487273 221.98506 
L 398.487273 221.98506 
L 397.018248 265.623735 
L 395.549223 253.874861 
L 394.080197 258.910093 
L 392.611172 263.945325 
L 391.142147 265.623735 
L 389.673122 268.980556 
L 388.204097 265.623735 
L 386.735072 275.694199 
L 385.266047 292.478305 
L 383.797022 200.165722 
L 382.327997 240.447576 
L 380.858972 247.161219 
L 379.389947 242.125987 
L 377.920921 245.482808 
L 376.451896 240.447576 
L 374.982871 263.945325 
L 373.513846 190.095258 
L 372.044821 196.808901 
L 370.575796 216.949828 
L 369.106771 223.66347 
L 367.637746 216.949828 
L 366.168721 220.306649 
L 364.699696 186.738437 
L 363.230671 253.874861 
L 361.761645 262.266914 
L 360.29262 277.372609 
L 358.823595 265.623735 
L 357.35457 205.200954 
L 355.885545 238.769166 
L 354.41652 230.377113 
L 352.947495 186.738437 
L 351.47847 247.161219 
L 350.009445 243.804397 
L 348.54042 173.311152 
L 347.071394 210.236185 
L 345.602369 176.667974 
L 344.133344 154.848636 
L 342.664319 200.165722 
L 341.195294 223.66347 
L 339.726269 203.522543 
L 338.257244 220.306649 
L 336.788219 213.593007 
L 335.319194 223.66347 
L 333.850169 208.557775 
L 332.381144 183.381616 
L 330.912118 267.302146 
L 329.443093 260.588503 
L 327.974068 247.161219 
L 326.505043 233.733934 
L 325.036018 203.522543 
L 323.566993 228.698702 
L 322.097968 260.588503 
L 320.628943 240.447576 
L 319.159918 242.125987 
L 317.690893 243.804397 
L 316.221868 238.769166 
L 314.752842 238.769166 
L 313.283817 237.090755 
L 311.814792 235.412344 
L 310.345767 220.306649 
L 308.876742 221.98506 
L 307.407717 223.66347 
L 305.938692 250.51804 
L 304.469667 227.020291 
L 303.000642 228.698702 
L 301.531617 203.522543 
L 300.062592 186.738437 
L 298.593566 203.522543 
L 297.124541 200.165722 
L 295.655516 206.879364 
L 294.186491 169.954331 
L 292.717466 206.879364 
L 291.248441 210.236185 
L 289.779416 201.844132 
L 288.310391 206.879364 
L 286.841366 230.377113 
L 285.372341 243.804397 
L 283.903316 223.66347 
L 282.43429 163.240689 
L 280.965265 122.958834 
L 279.49624 203.522543 
L 278.027215 176.667974 
L 276.55819 213.593007 
L 275.089165 218.628238 
L 273.62014 213.593007 
L 272.151115 221.98506 
L 270.68209 221.98506 
L 269.213065 225.341881 
L 267.744039 218.628238 
L 266.275014 228.698702 
L 264.805989 237.090755 
L 263.336964 248.839629 
L 261.867939 228.698702 
L 260.398914 232.055523 
L 258.929889 225.341881 
L 257.460864 232.055523 
L 255.991839 235.412344 
L 254.522814 248.839629 
L 253.053789 245.482808 
L 251.584763 245.482808 
L 250.115738 240.447576 
L 248.646713 230.377113 
L 247.177688 240.447576 
L 245.708663 247.161219 
L 244.239638 268.980556 
L 242.770613 250.51804 
L 241.301588 237.090755 
L 239.832563 240.447576 
L 238.363538 257.231682 
L 236.894513 242.125987 
L 235.425487 262.266914 
L 233.956462 260.588503 
L 232.487437 237.090755 
L 231.018412 247.161219 
L 229.549387 243.804397 
L 228.080362 238.769166 
L 226.611337 232.055523 
L 225.142312 237.090755 
L 223.673287 233.733934 
L 222.204262 237.090755 
L 220.735237 245.482808 
L 219.266211 262.266914 
L 217.797186 292.478305 
L 216.328161 280.72943 
L 214.859136 304.227179 
L 213.390111 190.095258 
L 211.921086 285.764662 
L 210.452061 285.764662 
L 208.983036 168.275921 
L 207.514011 243.804397 
L 206.044986 195.13049 
L 204.575961 159.883868 
L 203.106935 193.452079 
L 201.63791 178.346384 
L 200.168885 153.170225 
L 198.69986 206.879364 
L 197.230835 180.024795 
L 195.76181 201.844132 
L 194.292785 233.733934 
L 192.82376 238.769166 
L 191.354735 245.482808 
L 189.88571 258.910093 
L 188.416684 233.733934 
L 186.947659 245.482808 
L 185.478634 275.694199 
L 184.009609 223.66347 
L 182.540584 220.306649 
L 181.071559 233.733934 
L 179.602534 233.733934 
L 178.133509 225.341881 
L 176.664484 228.698702 
L 175.195459 230.377113 
L 173.726434 235.412344 
L 172.257408 240.447576 
L 170.788383 245.482808 
L 169.319358 284.086252 
L 167.850333 218.628238 
L 166.381308 274.015788 
L 164.912283 171.632742 
L 163.443258 287.443073 
L 161.974233 173.311152 
L 160.505208 96.104265 
L 159.036183 253.874861 
L 157.567158 96.104265 
L 156.098132 57.500821 
L 154.629107 233.733934 
L 153.160082 228.698702 
L 151.691057 210.236185 
L 150.222032 191.773669 
L 148.753007 195.13049 
L 147.283982 213.593007 
L 145.814957 211.914596 
L 144.345932 200.165722 
L 142.876907 200.165722 
L 141.407882 205.200954 
L 139.938856 205.200954 
L 138.469831 201.844132 
L 137.000806 190.095258 
L 135.531781 183.381616 
L 134.062756 171.632742 
L 132.593731 176.667974 
L 131.124706 178.346384 
L 129.655681 191.773669 
L 128.186656 176.667974 
L 126.717631 180.024795 
L 125.248606 181.703205 
L 123.77958 195.13049 
L 122.310555 185.060026 
L 120.84153 181.703205 
L 119.372505 163.240689 
L 117.90348 173.311152 
L 116.434455 174.989563 
L 114.96543 163.240689 
L 113.496405 188.416848 
L 112.02738 218.628238 
L 110.558355 109.53155 
L 109.089329 70.928106 
L 107.620304 55.822411 
L 106.151279 55.822411 
L 104.682254 55.822411 
L 103.213229 55.822411 
L 101.744204 55.822411 
L 100.275179 55.822411 
L 98.806154 55.822411 
L 97.337129 55.822411 
L 95.868104 55.822411 
L 94.399079 55.822411 
L 92.930053 55.822411 
L 91.461028 55.822411 
L 89.992003 55.822411 
L 88.522978 55.822411 
L 87.053953 55.822411 
L 85.584928 55.822411 
L 84.115903 55.822411 
L 82.646878 55.822411 
L 81.177853 55.822411 
L 79.708828 55.822411 
L 78.239803 55.822411 
L 76.770777 55.822411 
L 75.301752 55.822411 
L 73.832727 55.822411 
z
" style="fill:#1f77b4;"/>
   </g>
   <g id="PolyCollection_2">
    <path clip-path="url(#p97717f363b)" d="M 73.832727 55.822411 
L 73.832727 55.822411 
L 75.301752 55.822411 
L 76.770777 55.822411 
L 78.239803 55.822411 
L 79.708828 55.822411 
L 81.177853 55.822411 
L 82.646878 55.822411 
L 84.115903 55.822411 
L 85.584928 55.822411 
L 87.053953 55.822411 
L 88.522978 55.822411 
L 89.992003 55.822411 
L 91.461028 55.822411 
L 92.930053 55.822411 
L 94.399079 55.822411 
L 95.868104 55.822411 
L 97.337129 55.822411 
L 98.806154 55.822411 
L 100.275179 55.822411 
L 101.744204 55.822411 
L 103.213229 55.822411 
L 104.682254 55.822411 
L 106.151279 55.822411 
L 107.620304 55.822411 
L 109.089329 70.928106 
L 110.558355 109.53155 
L 112.02738 218.628238 
L 113.496405 188.416848 
L 114.96543 163.240689 
L 116.434455 174.989563 
L 117.90348 173.311152 
L 119.372505 163.240689 
L 120.84153 181.703205 
L 122.310555 185.060026 
L 123.77958 195.13049 
L 125.248606 181.703205 
L 126.717631 180.024795 
L 128.186656 176.667974 
L 129.655681 191.773669 
L 131.124706 178.346384 
L 132.593731 176.667974 
L 134.062756 171.632742 
L 135.531781 183.381616 
L 137.000806 190.095258 
L 138.469831 201.844132 
L 139.938856 205.200954 
L 141.407882 205.200954 
L 142.876907 200.165722 
L 144.345932 200.165722 
L 145.814957 211.914596 
L 147.283982 213.593007 
L 148.753007 195.13049 
L 150.222032 191.773669 
L 151.691057 210.236185 
L 153.160082 228.698702 
L 154.629107 233.733934 
L 156.098132 57.500821 
L 157.567158 96.104265 
L 159.036183 253.874861 
L 160.505208 96.104265 
L 161.974233 173.311152 
L 163.443258 287.443073 
L 164.912283 171.632742 
L 166.381308 274.015788 
L 167.850333 218.628238 
L 169.319358 284.086252 
L 170.788383 245.482808 
L 172.257408 240.447576 
L 173.726434 235.412344 
L 175.195459 230.377113 
L 176.664484 228.698702 
L 178.133509 225.341881 
L 179.602534 233.733934 
L 181.071559 233.733934 
L 182.540584 220.306649 
L 184.009609 223.66347 
L 185.478634 275.694199 
L 186.947659 245.482808 
L 188.416684 233.733934 
L 189.88571 258.910093 
L 191.354735 245.482808 
L 192.82376 238.769166 
L 194.292785 233.733934 
L 195.76181 201.844132 
L 197.230835 180.024795 
L 198.69986 206.879364 
L 200.168885 153.170225 
L 201.63791 178.346384 
L 203.106935 193.452079 
L 204.575961 159.883868 
L 206.044986 195.13049 
L 207.514011 243.804397 
L 208.983036 168.275921 
L 210.452061 285.764662 
L 211.921086 285.764662 
L 213.390111 190.095258 
L 214.859136 304.227179 
L 216.328161 280.72943 
L 217.797186 292.478305 
L 219.266211 262.266914 
L 220.735237 245.482808 
L 222.204262 237.090755 
L 223.673287 233.733934 
L 225.142312 237.090755 
L 226.611337 232.055523 
L 228.080362 238.769166 
L 229.549387 243.804397 
L 231.018412 247.161219 
L 232.487437 237.090755 
L 233.956462 260.588503 
L 235.425487 262.266914 
L 236.894513 242.125987 
L 238.363538 257.231682 
L 239.832563 240.447576 
L 241.301588 237.090755 
L 242.770613 250.51804 
L 244.239638 268.980556 
L 245.708663 247.161219 
L 247.177688 240.447576 
L 248.646713 230.377113 
L 250.115738 240.447576 
L 251.584763 245.482808 
L 253.053789 245.482808 
L 254.522814 248.839629 
L 255.991839 235.412344 
L 257.460864 232.055523 
L 258.929889 225.341881 
L 260.398914 232.055523 
L 261.867939 228.698702 
L 263.336964 248.839629 
L 264.805989 237.090755 
L 266.275014 228.698702 
L 267.744039 218.628238 
L 269.213065 225.341881 
L 270.68209 221.98506 
L 272.151115 221.98506 
L 273.62014 213.593007 
L 275.089165 218.628238 
L 276.55819 213.593007 
L 278.027215 176.667974 
L 279.49624 203.522543 
L 280.965265 122.958834 
L 282.43429 163.240689 
L 283.903316 223.66347 
L 285.372341 243.804397 
L 286.841366 230.377113 
L 288.310391 206.879364 
L 289.779416 201.844132 
L 291.248441 210.236185 
L 292.717466 206.879364 
L 294.186491 169.954331 
L 295.655516 206.879364 
L 297.124541 200.165722 
L 298.593566 203.522543 
L 300.062592 186.738437 
L 301.531617 203.522543 
L 303.000642 228.698702 
L 304.469667 227.020291 
L 305.938692 250.51804 
L 307.407717 223.66347 
L 308.876742 221.98506 
L 310.345767 220.306649 
L 311.814792 235.412344 
L 313.283817 237.090755 
L 314.752842 238.769166 
L 316.221868 238.769166 
L 317.690893 243.804397 
L 319.159918 242.125987 
L 320.628943 240.447576 
L 322.097968 260.588503 
L 323.566993 228.698702 
L 325.036018 203.522543 
L 326.505043 233.733934 
L 327.974068 247.161219 
L 329.443093 260.588503 
L 330.912118 267.302146 
L 332.381144 183.381616 
L 333.850169 208.557775 
L 335.319194 223.66347 
L 336.788219 213.593007 
L 338.257244 220.306649 
L 339.726269 203.522543 
L 341.195294 223.66347 
L 342.664319 200.165722 
L 344.133344 154.848636 
L 345.602369 176.667974 
L 347.071394 210.236185 
L 348.54042 173.311152 
L 350.009445 243.804397 
L 351.47847 247.161219 
L 352.947495 186.738437 
L 354.41652 230.377113 
L 355.885545 238.769166 
L 357.35457 205.200954 
L 358.823595 265.623735 
L 360.29262 277.372609 
L 361.761645 262.266914 
L 363.230671 253.874861 
L 364.699696 186.738437 
L 366.168721 220.306649 
L 367.637746 216.949828 
L 369.106771 223.66347 
L 370.575796 216.949828 
L 372.044821 196.808901 
L 373.513846 190.095258 
L 374.982871 263.945325 
L 376.451896 240.447576 
L 377.920921 245.482808 
L 379.389947 242.125987 
L 380.858972 247.161219 
L 382.327997 240.447576 
L 383.797022 200.165722 
L 385.266047 292.478305 
L 386.735072 275.694199 
L 388.204097 265.623735 
L 389.673122 268.980556 
L 391.142147 265.623735 
L 392.611172 263.945325 
L 394.080197 258.910093 
L 395.549223 253.874861 
L 397.018248 265.623735 
L 398.487273 221.98506 
L 398.487273 159.883868 
L 398.487273 159.883868 
L 397.018248 185.060026 
L 395.549223 193.452079 
L 394.080197 186.738437 
L 392.611172 211.914596 
L 391.142147 216.949828 
L 389.673122 213.593007 
L 388.204097 210.236185 
L 386.735072 220.306649 
L 385.266047 198.487311 
L 383.797022 195.13049 
L 382.327997 188.416848 
L 380.858972 190.095258 
L 379.389947 193.452079 
L 377.920921 198.487311 
L 376.451896 215.271417 
L 374.982871 252.19645 
L 373.513846 149.813404 
L 372.044821 161.562278 
L 370.575796 164.919099 
L 369.106771 159.883868 
L 367.637746 158.205457 
L 366.168721 176.667974 
L 364.699696 149.813404 
L 363.230671 174.989563 
L 361.761645 168.275921 
L 360.29262 180.024795 
L 358.823595 169.954331 
L 357.35457 163.240689 
L 355.885545 159.883868 
L 354.41652 148.134993 
L 352.947495 116.245192 
L 351.47847 126.315656 
L 350.009445 129.672477 
L 348.54042 136.386119 
L 347.071394 129.672477 
L 345.602369 127.994066 
L 344.133344 133.029298 
L 342.664319 112.888371 
L 341.195294 133.029298 
L 339.726269 124.637245 
L 338.257244 129.672477 
L 336.788219 134.707709 
L 335.319194 134.707709 
L 333.850169 139.74294 
L 332.381144 141.421351 
L 330.912118 163.240689 
L 329.443093 139.74294 
L 327.974068 131.350887 
L 326.505043 121.280424 
L 325.036018 133.029298 
L 323.566993 131.350887 
L 322.097968 159.883868 
L 320.628943 131.350887 
L 319.159918 129.672477 
L 317.690893 158.205457 
L 316.221868 191.773669 
L 314.752842 221.98506 
L 313.283817 143.099762 
L 311.814792 101.139497 
L 310.345767 99.461086 
L 308.876742 96.104265 
L 307.407717 99.461086 
L 305.938692 104.496318 
L 304.469667 106.174728 
L 303.000642 94.425854 
L 301.531617 94.425854 
L 300.062592 92.747444 
L 298.593566 91.069033 
L 297.124541 94.425854 
L 295.655516 86.033801 
L 294.186491 96.104265 
L 292.717466 91.069033 
L 291.248441 94.425854 
L 289.779416 91.069033 
L 288.310391 92.747444 
L 286.841366 101.139497 
L 285.372341 104.496318 
L 283.903316 94.425854 
L 282.43429 96.104265 
L 280.965265 92.747444 
L 279.49624 87.712212 
L 278.027215 94.425854 
L 276.55819 99.461086 
L 275.089165 104.496318 
L 273.62014 96.104265 
L 272.151115 97.782675 
L 270.68209 114.566781 
L 269.213065 101.139497 
L 267.744039 109.53155 
L 266.275014 111.20996 
L 264.805989 106.174728 
L 263.336964 111.20996 
L 261.867939 101.139497 
L 260.398914 114.566781 
L 258.929889 102.817907 
L 257.460864 104.496318 
L 255.991839 102.817907 
L 254.522814 102.817907 
L 253.053789 97.782675 
L 251.584763 116.245192 
L 250.115738 116.245192 
L 248.646713 112.888371 
L 247.177688 112.888371 
L 245.708663 111.20996 
L 244.239638 107.853139 
L 242.770613 124.637245 
L 241.301588 107.853139 
L 239.832563 109.53155 
L 238.363538 114.566781 
L 236.894513 99.461086 
L 235.425487 102.817907 
L 233.956462 106.174728 
L 232.487437 101.139497 
L 231.018412 109.53155 
L 229.549387 106.174728 
L 228.080362 112.888371 
L 226.611337 127.994066 
L 225.142312 97.782675 
L 223.673287 106.174728 
L 222.204262 104.496318 
L 220.735237 94.425854 
L 219.266211 107.853139 
L 217.797186 89.390623 
L 216.328161 124.637245 
L 214.859136 122.958834 
L 213.390111 148.134993 
L 211.921086 141.421351 
L 210.452061 122.958834 
L 208.983036 131.350887 
L 207.514011 127.994066 
L 206.044986 138.06453 
L 204.575961 134.707709 
L 203.106935 148.134993 
L 201.63791 141.421351 
L 200.168885 146.456583 
L 198.69986 136.386119 
L 197.230835 141.421351 
L 195.76181 124.637245 
L 194.292785 112.888371 
L 192.82376 127.994066 
L 191.354735 139.74294 
L 189.88571 129.672477 
L 188.416684 126.315656 
L 186.947659 136.386119 
L 185.478634 149.813404 
L 184.009609 138.06453 
L 182.540584 156.527046 
L 181.071559 141.421351 
L 179.602534 116.245192 
L 178.133509 114.566781 
L 176.664484 126.315656 
L 175.195459 127.994066 
L 173.726434 133.029298 
L 172.257408 117.923603 
L 170.788383 131.350887 
L 169.319358 121.280424 
L 167.850333 148.134993 
L 166.381308 235.412344 
L 164.912283 124.637245 
L 163.443258 126.315656 
L 161.974233 57.500821 
L 160.505208 55.822411 
L 159.036183 55.822411 
L 157.567158 55.822411 
L 156.098132 55.822411 
L 154.629107 55.822411 
L 153.160082 55.822411 
L 151.691057 55.822411 
L 150.222032 55.822411 
L 148.753007 55.822411 
L 147.283982 55.822411 
L 145.814957 55.822411 
L 144.345932 55.822411 
L 142.876907 55.822411 
L 141.407882 55.822411 
L 139.938856 55.822411 
L 138.469831 55.822411 
L 137.000806 55.822411 
L 135.531781 55.822411 
L 134.062756 55.822411 
L 132.593731 55.822411 
L 131.124706 55.822411 
L 129.655681 55.822411 
L 128.186656 55.822411 
L 126.717631 55.822411 
L 125.248606 55.822411 
L 123.77958 55.822411 
L 122.310555 55.822411 
L 120.84153 55.822411 
L 119.372505 55.822411 
L 117.90348 55.822411 
L 116.434455 55.822411 
L 114.96543 55.822411 
L 113.496405 55.822411 
L 112.02738 55.822411 
L 110.558355 55.822411 
L 109.089329 55.822411 
L 107.620304 55.822411 
L 106.151279 55.822411 
L 104.682254 55.822411 
L 103.213229 55.822411 
L 101.744204 55.822411 
L 100.275179 55.822411 
L 98.806154 55.822411 
L 97.337129 55.822411 
L 95.868104 55.822411 
L 94.399079 55.822411 
L 92.930053 55.822411 
L 91.461028 55.822411 
L 89.992003 55.822411 
L 88.522978 55.822411 
L 87.053953 55.822411 
L 85.584928 55.822411 
L 84.115903 55.822411 
L 82.646878 55.822411 
L 81.177853 55.822411 
L 79.708828 55.822411 
L 78.239803 55.822411 
L 76.770777 55.822411 
L 75.301752 55.822411 
L 73.832727 55.822411 
z
" style="fill:#ff7f0e;"/>
   </g>
   <g id="PolyCollection_3">
    <path clip-path="url(#p97717f363b)" d="M 73.832727 55.822411 
L 73.832727 55.822411 
L 75.301752 55.822411 
L 76.770777 55.822411 
L 78.239803 55.822411 
L 79.708828 55.822411 
L 81.177853 55.822411 
L 82.646878 55.822411 
L 84.115903 55.822411 
L 85.584928 55.822411 
L 87.053953 55.822411 
L 88.522978 55.822411 
L 89.992003 55.822411 
L 91.461028 55.822411 
L 92.930053 55.822411 
L 94.399079 55.822411 
L 95.868104 55.822411 
L 97.337129 55.822411 
L 98.806154 55.822411 
L 100.275179 55.822411 
L 101.744204 55.822411 
L 103.213229 55.822411 
L 104.682254 55.822411 
L 106.151279 55.822411 
L 107.620304 55.822411 
L 109.089329 55.822411 
L 110.558355 55.822411 
L 112.02738 55.822411 
L 113.496405 55.822411 
L 114.96543 55.822411 
L 116.434455 55.822411 
L 117.90348 55.822411 
L 119.372505 55.822411 
L 120.84153 55.822411 
L 122.310555 55.822411 
L 123.77958 55.822411 
L 125.248606 55.822411 
L 126.717631 55.822411 
L 128.186656 55.822411 
L 129.655681 55.822411 
L 131.124706 55.822411 
L 132.593731 55.822411 
L 134.062756 55.822411 
L 135.531781 55.822411 
L 137.000806 55.822411 
L 138.469831 55.822411 
L 139.938856 55.822411 
L 141.407882 55.822411 
L 142.876907 55.822411 
L 144.345932 55.822411 
L 145.814957 55.822411 
L 147.283982 55.822411 
L 148.753007 55.822411 
L 150.222032 55.822411 
L 151.691057 55.822411 
L 153.160082 55.822411 
L 154.629107 55.822411 
L 156.098132 55.822411 
L 157.567158 55.822411 
L 159.036183 55.822411 
L 160.505208 55.822411 
L 161.974233 57.500821 
L 163.443258 126.315656 
L 164.912283 124.637245 
L 166.381308 235.412344 
L 167.850333 148.134993 
L 169.319358 121.280424 
L 170.788383 131.350887 
L 172.257408 117.923603 
L 173.726434 133.029298 
L 175.195459 127.994066 
L 176.664484 126.315656 
L 178.133509 114.566781 
L 179.602534 116.245192 
L 181.071559 141.421351 
L 182.540584 156.527046 
L 184.009609 138.06453 
L 185.478634 149.813404 
L 186.947659 136.386119 
L 188.416684 126.315656 
L 189.88571 129.672477 
L 191.354735 139.74294 
L 192.82376 127.994066 
L 194.292785 112.888371 
L 195.76181 124.637245 
L 197.230835 141.421351 
L 198.69986 136.386119 
L 200.168885 146.456583 
L 201.63791 141.421351 
L 203.106935 148.134993 
L 204.575961 134.707709 
L 206.044986 138.06453 
L 207.514011 127.994066 
L 208.983036 131.350887 
L 210.452061 122.958834 
L 211.921086 141.421351 
L 213.390111 148.134993 
L 214.859136 122.958834 
L 216.328161 124.637245 
L 217.797186 89.390623 
L 219.266211 107.853139 
L 220.735237 94.425854 
L 222.204262 104.496318 
L 223.673287 106.174728 
L 225.142312 97.782675 
L 226.611337 127.994066 
L 228.080362 112.888371 
L 229.549387 106.174728 
L 231.018412 109.53155 
L 232.487437 101.139497 
L 233.956462 106.174728 
L 235.425487 102.817907 
L 236.894513 99.461086 
L 238.363538 114.566781 
L 239.832563 109.53155 
L 241.301588 107.853139 
L 242.770613 124.637245 
L 244.239638 107.853139 
L 245.708663 111.20996 
L 247.177688 112.888371 
L 248.646713 112.888371 
L 250.115738 116.245192 
L 251.584763 116.245192 
L 253.053789 97.782675 
L 254.522814 102.817907 
L 255.991839 102.817907 
L 257.460864 104.496318 
L 258.929889 102.817907 
L 260.398914 114.566781 
L 261.867939 101.139497 
L 263.336964 111.20996 
L 264.805989 106.174728 
L 266.275014 111.20996 
L 267.744039 109.53155 
L 269.213065 101.139497 
L 270.68209 114.566781 
L 272.151115 97.782675 
L 273.62014 96.104265 
L 275.089165 104.496318 
L 276.55819 99.461086 
L 278.027215 94.425854 
L 279.49624 87.712212 
L 280.965265 92.747444 
L 282.43429 96.104265 
L 283.903316 94.425854 
L 285.372341 104.496318 
L 286.841366 101.139497 
L 288.310391 92.747444 
L 289.779416 91.069033 
L 291.248441 94.425854 
L 292.717466 91.069033 
L 294.186491 96.104265 
L 295.655516 86.033801 
L 297.124541 94.425854 
L 298.593566 91.069033 
L 300.062592 92.747444 
L 301.531617 94.425854 
L 303.000642 94.425854 
L 304.469667 106.174728 
L 305.938692 104.496318 
L 307.407717 99.461086 
L 308.876742 96.104265 
L 310.345767 99.461086 
L 311.814792 101.139497 
L 313.283817 143.099762 
L 314.752842 221.98506 
L 316.221868 191.773669 
L 317.690893 158.205457 
L 319.159918 129.672477 
L 320.628943 131.350887 
L 322.097968 159.883868 
L 323.566993 131.350887 
L 325.036018 133.029298 
L 326.505043 121.280424 
L 327.974068 131.350887 
L 329.443093 139.74294 
L 330.912118 163.240689 
L 332.381144 141.421351 
L 333.850169 139.74294 
L 335.319194 134.707709 
L 336.788219 134.707709 
L 338.257244 129.672477 
L 339.726269 124.637245 
L 341.195294 133.029298 
L 342.664319 112.888371 
L 344.133344 133.029298 
L 345.602369 127.994066 
L 347.071394 129.672477 
L 348.54042 136.386119 
L 350.009445 129.672477 
L 351.47847 126.315656 
L 352.947495 116.245192 
L 354.41652 148.134993 
L 355.885545 159.883868 
L 357.35457 163.240689 
L 358.823595 169.954331 
L 360.29262 180.024795 
L 361.761645 168.275921 
L 363.230671 174.989563 
L 364.699696 149.813404 
L 366.168721 176.667974 
L 367.637746 158.205457 
L 369.106771 159.883868 
L 370.575796 164.919099 
L 372.044821 161.562278 
L 373.513846 149.813404 
L 374.982871 252.19645 
L 376.451896 215.271417 
L 377.920921 198.487311 
L 379.389947 193.452079 
L 380.858972 190.095258 
L 382.327997 188.416848 
L 383.797022 195.13049 
L 385.266047 198.487311 
L 386.735072 220.306649 
L 388.204097 210.236185 
L 389.673122 213.593007 
L 391.142147 216.949828 
L 392.611172 211.914596 
L 394.080197 186.738437 
L 395.549223 193.452079 
L 397.018248 185.060026 
L 398.487273 159.883868 
L 398.487273 117.923603 
L 398.487273 117.923603 
L 397.018248 136.386119 
L 395.549223 166.59751 
L 394.080197 141.421351 
L 392.611172 149.813404 
L 391.142147 161.562278 
L 389.673122 154.848636 
L 388.204097 154.848636 
L 386.735072 163.240689 
L 385.266047 139.74294 
L 383.797022 138.06453 
L 382.327997 94.425854 
L 380.858972 96.104265 
L 379.389947 92.747444 
L 377.920921 111.20996 
L 376.451896 119.602013 
L 374.982871 126.315656 
L 373.513846 96.104265 
L 372.044821 92.747444 
L 370.575796 104.496318 
L 369.106771 101.139497 
L 367.637746 99.461086 
L 366.168721 104.496318 
L 364.699696 96.104265 
L 363.230671 106.174728 
L 361.761645 102.817907 
L 360.29262 101.139497 
L 358.823595 101.139497 
L 357.35457 109.53155 
L 355.885545 99.461086 
L 354.41652 79.320159 
L 352.947495 60.857642 
L 351.47847 54.144 
L 350.009445 54.144 
L 348.54042 54.144 
L 347.071394 54.144 
L 345.602369 54.144 
L 344.133344 54.144 
L 342.664319 54.144 
L 341.195294 54.144 
L 339.726269 55.822411 
L 338.257244 55.822411 
L 336.788219 54.144 
L 335.319194 57.500821 
L 333.850169 55.822411 
L 332.381144 55.822411 
L 330.912118 54.144 
L 329.443093 55.822411 
L 327.974068 55.822411 
L 326.505043 57.500821 
L 325.036018 57.500821 
L 323.566993 57.500821 
L 322.097968 57.500821 
L 320.628943 57.500821 
L 319.159918 57.500821 
L 317.690893 55.822411 
L 316.221868 54.144 
L 314.752842 55.822411 
L 313.283817 55.822411 
L 311.814792 57.500821 
L 310.345767 55.822411 
L 308.876742 54.144 
L 307.407717 57.500821 
L 305.938692 55.822411 
L 304.469667 57.500821 
L 303.000642 55.822411 
L 301.531617 55.822411 
L 300.062592 55.822411 
L 298.593566 55.822411 
L 297.124541 55.822411 
L 295.655516 55.822411 
L 294.186491 54.144 
L 292.717466 54.144 
L 291.248441 54.144 
L 289.779416 54.144 
L 288.310391 55.822411 
L 286.841366 57.500821 
L 285.372341 57.500821 
L 283.903316 55.822411 
L 282.43429 55.822411 
L 280.965265 57.500821 
L 279.49624 57.500821 
L 278.027215 55.822411 
L 276.55819 55.822411 
L 275.089165 54.144 
L 273.62014 55.822411 
L 272.151115 54.144 
L 270.68209 54.144 
L 269.213065 54.144 
L 267.744039 55.822411 
L 266.275014 55.822411 
L 264.805989 55.822411 
L 263.336964 55.822411 
L 261.867939 55.822411 
L 260.398914 55.822411 
L 258.929889 54.144 
L 257.460864 55.822411 
L 255.991839 57.500821 
L 254.522814 55.822411 
L 253.053789 55.822411 
L 251.584763 55.822411 
L 250.115738 55.822411 
L 248.646713 57.500821 
L 247.177688 57.500821 
L 245.708663 57.500821 
L 244.239638 57.500821 
L 242.770613 57.500821 
L 241.301588 55.822411 
L 239.832563 55.822411 
L 238.363538 57.500821 
L 236.894513 57.500821 
L 235.425487 57.500821 
L 233.956462 55.822411 
L 232.487437 55.822411 
L 231.018412 55.822411 
L 229.549387 57.500821 
L 228.080362 57.500821 
L 226.611337 55.822411 
L 225.142312 54.144 
L 223.673287 54.144 
L 222.204262 54.144 
L 220.735237 55.822411 
L 219.266211 55.822411 
L 217.797186 55.822411 
L 216.328161 55.822411 
L 214.859136 55.822411 
L 213.390111 54.144 
L 211.921086 55.822411 
L 210.452061 55.822411 
L 208.983036 55.822411 
L 207.514011 54.144 
L 206.044986 55.822411 
L 204.575961 55.822411 
L 203.106935 55.822411 
L 201.63791 55.822411 
L 200.168885 55.822411 
L 198.69986 57.500821 
L 197.230835 57.500821 
L 195.76181 55.822411 
L 194.292785 54.144 
L 192.82376 55.822411 
L 191.354735 54.144 
L 189.88571 54.144 
L 188.416684 54.144 
L 186.947659 55.822411 
L 185.478634 55.822411 
L 184.009609 55.822411 
L 182.540584 57.500821 
L 181.071559 55.822411 
L 179.602534 54.144 
L 178.133509 55.822411 
L 176.664484 55.822411 
L 175.195459 54.144 
L 173.726434 54.144 
L 172.257408 55.822411 
L 170.788383 55.822411 
L 169.319358 55.822411 
L 167.850333 55.822411 
L 166.381308 55.822411 
L 164.912283 57.500821 
L 163.443258 57.500821 
L 161.974233 55.822411 
L 160.505208 55.822411 
L 159.036183 55.822411 
L 157.567158 55.822411 
L 156.098132 55.822411 
L 154.629107 55.822411 
L 153.160082 55.822411 
L 151.691057 55.822411 
L 150.222032 55.822411 
L 148.753007 55.822411 
L 147.283982 55.822411 
L 145.814957 55.822411 
L 144.345932 55.822411 
L 142.876907 55.822411 
L 141.407882 55.822411 
L 139.938856 55.822411 
L 138.469831 55.822411 
L 137.000806 55.822411 
L 135.531781 55.822411 
L 134.062756 55.822411 
L 132.593731 55.822411 
L 131.124706 55.822411 
L 129.655681 55.822411 
L 128.186656 55.822411 
L 126.717631 55.822411 
L 125.248606 55.822411 
L 123.77958 55.822411 
L 122.310555 55.822411 
L 120.84153 55.822411 
L 119.372505 55.822411 
L 117.90348 55.822411 
L 116.434455 55.822411 
L 114.96543 55.822411 
L 113.496405 55.822411 
L 112.02738 55.822411 
L 110.558355 55.822411 
L 109.089329 55.822411 
L 107.620304 55.822411 
L 106.151279 55.822411 
L 104.682254 55.822411 
L 103.213229 55.822411 
L 101.744204 55.822411 
L 100.275179 55.822411 
L 98.806154 55.822411 
L 97.337129 55.822411 
L 95.868104 55.822411 
L 94.399079 55.822411 
L 92.930053 55.822411 
L 91.461028 55.822411 
L 89.992003 55.822411 
L 88.522978 55.822411 
L 87.053953 55.822411 
L 85.584928 55.822411 
L 84.115903 55.822411 
L 82.646878 55.822411 
L 81.177853 55.822411 
L 79.708828 55.822411 
L 78.239803 55.822411 
L 76.770777 55.822411 
L 75.301752 55.822411 
L 73.832727 55.822411 
z
" style="fill:#2ca02c;"/>
   </g>
   <g id="PolyCollection_4">
    <path clip-path="url(#p97717f363b)" d="M 73.832727 55.822411 
L 73.832727 55.822411 
L 75.301752 55.822411 
L 76.770777 55.822411 
L 78.239803 55.822411 
L 79.708828 55.822411 
L 81.177853 55.822411 
L 82.646878 55.822411 
L 84.115903 55.822411 
L 85.584928 55.822411 
L 87.053953 55.822411 
L 88.522978 55.822411 
L 89.992003 55.822411 
L 91.461028 55.822411 
L 92.930053 55.822411 
L 94.399079 55.822411 
L 95.868104 55.822411 
L 97.337129 55.822411 
L 98.806154 55.822411 
L 100.275179 55.822411 
L 101.744204 55.822411 
L 103.213229 55.822411 
L 104.682254 55.822411 
L 106.151279 55.822411 
L 107.620304 55.822411 
L 109.089329 55.822411 
L 110.558355 55.822411 
L 112.02738 55.822411 
L 113.496405 55.822411 
L 114.96543 55.822411 
L 116.434455 55.822411 
L 117.90348 55.822411 
L 119.372505 55.822411 
L 120.84153 55.822411 
L 122.310555 55.822411 
L 123.77958 55.822411 
L 125.248606 55.822411 
L 126.717631 55.822411 
L 128.186656 55.822411 
L 129.655681 55.822411 
L 131.124706 55.822411 
L 132.593731 55.822411 
L 134.062756 55.822411 
L 135.531781 55.822411 
L 137.000806 55.822411 
L 138.469831 55.822411 
L 139.938856 55.822411 
L 141.407882 55.822411 
L 142.876907 55.822411 
L 144.345932 55.822411 
L 145.814957 55.822411 
L 147.283982 55.822411 
L 148.753007 55.822411 
L 150.222032 55.822411 
L 151.691057 55.822411 
L 153.160082 55.822411 
L 154.629107 55.822411 
L 156.098132 55.822411 
L 157.567158 55.822411 
L 159.036183 55.822411 
L 160.505208 55.822411 
L 161.974233 55.822411 
L 163.443258 57.500821 
L 164.912283 57.500821 
L 166.381308 55.822411 
L 167.850333 55.822411 
L 169.319358 55.822411 
L 170.788383 55.822411 
L 172.257408 55.822411 
L 173.726434 54.144 
L 175.195459 54.144 
L 176.664484 55.822411 
L 178.133509 55.822411 
L 179.602534 54.144 
L 181.071559 55.822411 
L 182.540584 57.500821 
L 184.009609 55.822411 
L 185.478634 55.822411 
L 186.947659 55.822411 
L 188.416684 54.144 
L 189.88571 54.144 
L 191.354735 54.144 
L 192.82376 55.822411 
L 194.292785 54.144 
L 195.76181 55.822411 
L 197.230835 57.500821 
L 198.69986 57.500821 
L 200.168885 55.822411 
L 201.63791 55.822411 
L 203.106935 55.822411 
L 204.575961 55.822411 
L 206.044986 55.822411 
L 207.514011 54.144 
L 208.983036 55.822411 
L 210.452061 55.822411 
L 211.921086 55.822411 
L 213.390111 54.144 
L 214.859136 55.822411 
L 216.328161 55.822411 
L 217.797186 55.822411 
L 219.266211 55.822411 
L 220.735237 55.822411 
L 222.204262 54.144 
L 223.673287 54.144 
L 225.142312 54.144 
L 226.611337 55.822411 
L 228.080362 57.500821 
L 229.549387 57.500821 
L 231.018412 55.822411 
L 232.487437 55.822411 
L 233.956462 55.822411 
L 235.425487 57.500821 
L 236.894513 57.500821 
L 238.363538 57.500821 
L 239.832563 55.822411 
L 241.301588 55.822411 
L 242.770613 57.500821 
L 244.239638 57.500821 
L 245.708663 57.500821 
L 247.177688 57.500821 
L 248.646713 57.500821 
L 250.115738 55.822411 
L 251.584763 55.822411 
L 253.053789 55.822411 
L 254.522814 55.822411 
L 255.991839 57.500821 
L 257.460864 55.822411 
L 258.929889 54.144 
L 260.398914 55.822411 
L 261.867939 55.822411 
L 263.336964 55.822411 
L 264.805989 55.822411 
L 266.275014 55.822411 
L 267.744039 55.822411 
L 269.213065 54.144 
L 270.68209 54.144 
L 272.151115 54.144 
L 273.62014 55.822411 
L 275.089165 54.144 
L 276.55819 55.822411 
L 278.027215 55.822411 
L 279.49624 57.500821 
L 280.965265 57.500821 
L 282.43429 55.822411 
L 283.903316 55.822411 
L 285.372341 57.500821 
L 286.841366 57.500821 
L 288.310391 55.822411 
L 289.779416 54.144 
L 291.248441 54.144 
L 292.717466 54.144 
L 294.186491 54.144 
L 295.655516 55.822411 
L 297.124541 55.822411 
L 298.593566 55.822411 
L 300.062592 55.822411 
L 301.531617 55.822411 
L 303.000642 55.822411 
L 304.469667 57.500821 
L 305.938692 55.822411 
L 307.407717 57.500821 
L 308.876742 54.144 
L 310.345767 55.822411 
L 311.814792 57.500821 
L 313.283817 55.822411 
L 314.752842 55.822411 
L 316.221868 54.144 
L 317.690893 55.822411 
L 319.159918 57.500821 
L 320.628943 57.500821 
L 322.097968 57.500821 
L 323.566993 57.500821 
L 325.036018 57.500821 
L 326.505043 57.500821 
L 327.974068 55.822411 
L 329.443093 55.822411 
L 330.912118 54.144 
L 332.381144 55.822411 
L 333.850169 55.822411 
L 335.319194 57.500821 
L 336.788219 54.144 
L 338.257244 55.822411 
L 339.726269 55.822411 
L 341.195294 54.144 
L 342.664319 54.144 
L 344.133344 54.144 
L 345.602369 54.144 
L 347.071394 54.144 
L 348.54042 54.144 
L 350.009445 54.144 
L 351.47847 54.144 
L 352.947495 60.857642 
L 354.41652 79.320159 
L 355.885545 99.461086 
L 357.35457 109.53155 
L 358.823595 101.139497 
L 360.29262 101.139497 
L 361.761645 102.817907 
L 363.230671 106.174728 
L 364.699696 96.104265 
L 366.168721 104.496318 
L 367.637746 99.461086 
L 369.106771 101.139497 
L 370.575796 104.496318 
L 372.044821 92.747444 
L 373.513846 96.104265 
L 374.982871 126.315656 
L 376.451896 119.602013 
L 377.920921 111.20996 
L 379.389947 92.747444 
L 380.858972 96.104265 
L 382.327997 94.425854 
L 383.797022 138.06453 
L 385.266047 139.74294 
L 386.735072 163.240689 
L 388.204097 154.848636 
L 389.673122 154.848636 
L 391.142147 161.562278 
L 392.611172 149.813404 
L 394.080197 141.421351 
L 395.549223 166.59751 
L 397.018248 136.386119 
L 398.487273 117.923603 
L 398.487273 55.822411 
L 398.487273 55.822411 
L 397.018248 57.500821 
L 395.549223 55.822411 
L 394.080197 55.822411 
L 392.611172 55.822411 
L 391.142147 57.500821 
L 389.673122 55.822411 
L 388.204097 55.822411 
L 386.735072 55.822411 
L 385.266047 55.822411 
L 383.797022 55.822411 
L 382.327997 55.822411 
L 380.858972 55.822411 
L 379.389947 57.500821 
L 377.920921 57.500821 
L 376.451896 55.822411 
L 374.982871 57.500821 
L 373.513846 57.500821 
L 372.044821 55.822411 
L 370.575796 55.822411 
L 369.106771 55.822411 
L 367.637746 54.144 
L 366.168721 54.144 
L 364.699696 55.822411 
L 363.230671 55.822411 
L 361.761645 55.822411 
L 360.29262 57.500821 
L 358.823595 55.822411 
L 357.35457 55.822411 
L 355.885545 55.822411 
L 354.41652 54.144 
L 352.947495 54.144 
L 351.47847 54.144 
L 350.009445 54.144 
L 348.54042 54.144 
L 347.071394 54.144 
L 345.602369 54.144 
L 344.133344 54.144 
L 342.664319 54.144 
L 341.195294 54.144 
L 339.726269 55.822411 
L 338.257244 55.822411 
L 336.788219 54.144 
L 335.319194 57.500821 
L 333.850169 55.822411 
L 332.381144 55.822411 
L 330.912118 54.144 
L 329.443093 55.822411 
L 327.974068 55.822411 
L 326.505043 57.500821 
L 325.036018 57.500821 
L 323.566993 57.500821 
L 322.097968 57.500821 
L 320.628943 57.500821 
L 319.159918 57.500821 
L 317.690893 55.822411 
L 316.221868 54.144 
L 314.752842 55.822411 
L 313.283817 55.822411 
L 311.814792 57.500821 
L 310.345767 55.822411 
L 308.876742 54.144 
L 307.407717 57.500821 
L 305.938692 55.822411 
L 304.469667 57.500821 
L 303.000642 55.822411 
L 301.531617 55.822411 
L 300.062592 55.822411 
L 298.593566 55.822411 
L 297.124541 55.822411 
L 295.655516 55.822411 
L 294.186491 54.144 
L 292.717466 54.144 
L 291.248441 54.144 
L 289.779416 54.144 
L 288.310391 55.822411 
L 286.841366 57.500821 
L 285.372341 57.500821 
L 283.903316 55.822411 
L 282.43429 55.822411 
L 280.965265 57.500821 
L 279.49624 57.500821 
L 278.027215 55.822411 
L 276.55819 55.822411 
L 275.089165 54.144 
L 273.62014 55.822411 
L 272.151115 54.144 
L 270.68209 54.144 
L 269.213065 54.144 
L 267.744039 55.822411 
L 266.275014 55.822411 
L 264.805989 55.822411 
L 263.336964 55.822411 
L 261.867939 55.822411 
L 260.398914 55.822411 
L 258.929889 54.144 
L 257.460864 55.822411 
L 255.991839 57.500821 
L 254.522814 55.822411 
L 253.053789 55.822411 
L 251.584763 55.822411 
L 250.115738 55.822411 
L 248.646713 57.500821 
L 247.177688 57.500821 
L 245.708663 57.500821 
L 244.239638 57.500821 
L 242.770613 57.500821 
L 241.301588 55.822411 
L 239.832563 55.822411 
L 238.363538 57.500821 
L 236.894513 57.500821 
L 235.425487 57.500821 
L 233.956462 55.822411 
L 232.487437 55.822411 
L 231.018412 55.822411 
L 229.549387 57.500821 
L 228.080362 57.500821 
L 226.611337 55.822411 
L 225.142312 54.144 
L 223.673287 54.144 
L 222.204262 54.144 
L 220.735237 55.822411 
L 219.266211 55.822411 
L 217.797186 55.822411 
L 216.328161 55.822411 
L 214.859136 55.822411 
L 213.390111 54.144 
L 211.921086 55.822411 
L 210.452061 55.822411 
L 208.983036 55.822411 
L 207.514011 54.144 
L 206.044986 55.822411 
L 204.575961 55.822411 
L 203.106935 55.822411 
L 201.63791 55.822411 
L 200.168885 55.822411 
L 198.69986 57.500821 
L 197.230835 57.500821 
L 195.76181 55.822411 
L 194.292785 54.144 
L 192.82376 55.822411 
L 191.354735 54.144 
L 189.88571 54.144 
L 188.416684 54.144 
L 186.947659 55.822411 
L 185.478634 55.822411 
L 184.009609 55.822411 
L 182.540584 57.500821 
L 181.071559 55.822411 
L 179.602534 54.144 
L 178.133509 55.822411 
L 176.664484 55.822411 
L 175.195459 54.144 
L 173.726434 54.144 
L 172.257408 55.822411 
L 170.788383 55.822411 
L 169.319358 55.822411 
L 167.850333 55.822411 
L 166.381308 55.822411 
L 164.912283 57.500821 
L 163.443258 57.500821 
L 161.974233 55.822411 
L 160.505208 55.822411 
L 159.036183 55.822411 
L 157.567158 55.822411 
L 156.098132 55.822411 
L 154.629107 55.822411 
L 153.160082 55.822411 
L 151.691057 55.822411 
L 150.222032 55.822411 
L 148.753007 55.822411 
L 147.283982 55.822411 
L 145.814957 55.822411 
L 144.345932 55.822411 
L 142.876907 55.822411 
L 141.407882 55.822411 
L 139.938856 55.822411 
L 138.469831 55.822411 
L 137.000806 55.822411 
L 135.531781 55.822411 
L 134.062756 55.822411 
L 132.593731 55.822411 
L 131.124706 55.822411 
L 129.655681 55.822411 
L 128.186656 55.822411 
L 126.717631 55.822411 
L 125.248606 55.822411 
L 123.77958 55.822411 
L 122.310555 55.822411 
L 120.84153 55.822411 
L 119.372505 55.822411 
L 117.90348 55.822411 
L 116.434455 55.822411 
L 114.96543 55.822411 
L 113.496405 55.822411 
L 112.02738 55.822411 
L 110.558355 55.822411 
L 109.089329 55.822411 
L 107.620304 55.822411 
L 106.151279 55.822411 
L 104.682254 55.822411 
L 103.213229 55.822411 
L 101.744204 55.822411 
L 100.275179 55.822411 
L 98.806154 55.822411 
L 97.337129 55.822411 
L 95.868104 55.822411 
L 94.399079 55.822411 
L 92.930053 55.822411 
L 91.461028 55.822411 
L 89.992003 55.822411 
L 88.522978 55.822411 
L 87.053953 55.822411 
L 85.584928 55.822411 
L 84.115903 55.822411 
L 82.646878 55.822411 
L 81.177853 55.822411 
L 79.708828 55.822411 
L 78.239803 55.822411 
L 76.770777 55.822411 
L 75.301752 55.822411 
L 73.832727 55.822411 
z
" style="fill:#d62728;"/>
   </g>
   <g id="matplotlib.axis_1">
    <g id="xtick_1">
     <g id="line2d_1">
      <defs>
       <path d="M 0 0 
L 0 3.5 
" id="m67881f7184" style="stroke:#000000;stroke-width:0.8;"/>
      </defs>
      <g>
       <use style="stroke:#000000;stroke-width:0.8;" x="73.832727" xlink:href="#m67881f7184" y="307.584"/>
      </g>
     </g>
     <g id="text_1">
      <!-- 0 -->
      <defs>
       <path d="M 31.78125 66.40625 
Q 24.171875 66.40625 20.328125 58.90625 
Q 16.5 51.421875 16.5 36.375 
Q 16.5 21.390625 20.328125 13.890625 
Q 24.171875 6.390625 31.78125 6.390625 
Q 39.453125 6.390625 43.28125 13.890625 
Q 47.125 21.390625 47.125 36.375 
Q 47.125 51.421875 43.28125 58.90625 
Q 39.453125 66.40625 31.78125 66.40625 
z
M 31.78125 74.21875 
Q 44.046875 74.21875 50.515625 64.515625 
Q 56.984375 54.828125 56.984375 36.375 
Q 56.984375 17.96875 50.515625 8.265625 
Q 44.046875 -1.421875 31.78125 -1.421875 
Q 19.53125 -1.421875 13.0625 8.265625 
Q 6.59375 17.96875 6.59375 36.375 
Q 6.59375 54.828125 13.0625 64.515625 
Q 19.53125 74.21875 31.78125 74.21875 
z
" id="DejaVuSans-48"/>
      </defs>
      <g transform="translate(70.651477 322.182437)scale(0.1 -0.1)">
       <use xlink:href="#DejaVuSans-48"/>
      </g>
     </g>
    </g>
    <g id="xtick_2">
     <g id="line2d_2">
      <g>
       <use style="stroke:#000000;stroke-width:0.8;" x="147.283982" xlink:href="#m67881f7184" y="307.584"/>
      </g>
     </g>
     <g id="text_2">
      <!-- 50 -->
      <defs>
       <path d="M 10.796875 72.90625 
L 49.515625 72.90625 
L 49.515625 64.59375 
L 19.828125 64.59375 
L 19.828125 46.734375 
Q 21.96875 47.46875 24.109375 47.828125 
Q 26.265625 48.1875 28.421875 48.1875 
Q 40.625 48.1875 47.75 41.5 
Q 54.890625 34.8125 54.890625 23.390625 
Q 54.890625 11.625 47.5625 5.09375 
Q 40.234375 -1.421875 26.90625 -1.421875 
Q 22.3125 -1.421875 17.546875 -0.640625 
Q 12.796875 0.140625 7.71875 1.703125 
L 7.71875 11.625 
Q 12.109375 9.234375 16.796875 8.0625 
Q 21.484375 6.890625 26.703125 6.890625 
Q 35.15625 6.890625 40.078125 11.328125 
Q 45.015625 15.765625 45.015625 23.390625 
Q 45.015625 31 40.078125 35.4375 
Q 35.15625 39.890625 26.703125 39.890625 
Q 22.75 39.890625 18.8125 39.015625 
Q 14.890625 38.140625 10.796875 36.28125 
z
" id="DejaVuSans-53"/>
      </defs>
      <g transform="translate(140.921482 322.182437)scale(0.1 -0.1)">
       <use xlink:href="#DejaVuSans-53"/>
       <use x="63.623047" xlink:href="#DejaVuSans-48"/>
      </g>
     </g>
    </g>
    <g id="xtick_3">
     <g id="line2d_3">
      <g>
       <use style="stroke:#000000;stroke-width:0.8;" x="220.735237" xlink:href="#m67881f7184" y="307.584"/>
      </g>
     </g>
     <g id="text_3">
      <!-- 100 -->
      <defs>
       <path d="M 12.40625 8.296875 
L 28.515625 8.296875 
L 28.515625 63.921875 
L 10.984375 60.40625 
L 10.984375 69.390625 
L 28.421875 72.90625 
L 38.28125 72.90625 
L 38.28125 8.296875 
L 54.390625 8.296875 
L 54.390625 0 
L 12.40625 0 
z
" id="DejaVuSans-49"/>
      </defs>
      <g transform="translate(211.191487 322.182437)scale(0.1 -0.1)">
       <use xlink:href="#DejaVuSans-49"/>
       <use x="63.623047" xlink:href="#DejaVuSans-48"/>
       <use x="127.246094" xlink:href="#DejaVuSans-48"/>
      </g>
     </g>
    </g>
    <g id="xtick_4">
     <g id="line2d_4">
      <g>
       <use style="stroke:#000000;stroke-width:0.8;" x="294.186491" xlink:href="#m67881f7184" y="307.584"/>
      </g>
     </g>
     <g id="text_4">
      <!-- 150 -->
      <g transform="translate(284.642741 322.182437)scale(0.1 -0.1)">
       <use xlink:href="#DejaVuSans-49"/>
       <use x="63.623047" xlink:href="#DejaVuSans-53"/>
       <use x="127.246094" xlink:href="#DejaVuSans-48"/>
      </g>
     </g>
    </g>
    <g id="xtick_5">
     <g id="line2d_5">
      <g>
       <use style="stroke:#000000;stroke-width:0.8;" x="367.637746" xlink:href="#m67881f7184" y="307.584"/>
      </g>
     </g>
     <g id="text_5">
      <!-- 200 -->
      <defs>
       <path d="M 19.1875 8.296875 
L 53.609375 8.296875 
L 53.609375 0 
L 7.328125 0 
L 7.328125 8.296875 
Q 12.9375 14.109375 22.625 23.890625 
Q 32.328125 33.6875 34.8125 36.53125 
Q 39.546875 41.84375 41.421875 45.53125 
Q 43.3125 49.21875 43.3125 52.78125 
Q 43.3125 58.59375 39.234375 62.25 
Q 35.15625 65.921875 28.609375 65.921875 
Q 23.96875 65.921875 18.8125 64.3125 
Q 13.671875 62.703125 7.8125 59.421875 
L 7.8125 69.390625 
Q 13.765625 71.78125 18.9375 73 
Q 24.125 74.21875 28.421875 74.21875 
Q 39.75 74.21875 46.484375 68.546875 
Q 53.21875 62.890625 53.21875 53.421875 
Q 53.21875 48.921875 51.53125 44.890625 
Q 49.859375 40.875 45.40625 35.40625 
Q 44.1875 33.984375 37.640625 27.21875 
Q 31.109375 20.453125 19.1875 8.296875 
z
" id="DejaVuSans-50"/>
      </defs>
      <g transform="translate(358.093996 322.182437)scale(0.1 -0.1)">
       <use xlink:href="#DejaVuSans-50"/>
       <use x="63.623047" xlink:href="#DejaVuSans-48"/>
       <use x="127.246094" xlink:href="#DejaVuSans-48"/>
      </g>
     </g>
    </g>
    <g id="text_6">
     <!-- Generations -->
     <defs>
      <path d="M 59.515625 10.40625 
L 59.515625 29.984375 
L 43.40625 29.984375 
L 43.40625 38.09375 
L 69.28125 38.09375 
L 69.28125 6.78125 
Q 63.578125 2.734375 56.6875 0.65625 
Q 49.8125 -1.421875 42 -1.421875 
Q 24.90625 -1.421875 15.25 8.5625 
Q 5.609375 18.5625 5.609375 36.375 
Q 5.609375 54.25 15.25 64.234375 
Q 24.90625 74.21875 42 74.21875 
Q 49.125 74.21875 55.546875 72.453125 
Q 61.96875 70.703125 67.390625 67.28125 
L 67.390625 56.78125 
Q 61.921875 61.421875 55.765625 63.765625 
Q 49.609375 66.109375 42.828125 66.109375 
Q 29.4375 66.109375 22.71875 58.640625 
Q 16.015625 51.171875 16.015625 36.375 
Q 16.015625 21.625 22.71875 14.15625 
Q 29.4375 6.6875 42.828125 6.6875 
Q 48.046875 6.6875 52.140625 7.59375 
Q 56.25 8.5 59.515625 10.40625 
z
" id="DejaVuSans-71"/>
      <path d="M 56.203125 29.59375 
L 56.203125 25.203125 
L 14.890625 25.203125 
Q 15.484375 15.921875 20.484375 11.0625 
Q 25.484375 6.203125 34.421875 6.203125 
Q 39.59375 6.203125 44.453125 7.46875 
Q 49.3125 8.734375 54.109375 11.28125 
L 54.109375 2.78125 
Q 49.265625 0.734375 44.1875 -0.34375 
Q 39.109375 -1.421875 33.890625 -1.421875 
Q 20.796875 -1.421875 13.15625 6.1875 
Q 5.515625 13.8125 5.515625 26.8125 
Q 5.515625 40.234375 12.765625 48.109375 
Q 20.015625 56 32.328125 56 
Q 43.359375 56 49.78125 48.890625 
Q 56.203125 41.796875 56.203125 29.59375 
z
M 47.21875 32.234375 
Q 47.125 39.59375 43.09375 43.984375 
Q 39.0625 48.390625 32.421875 48.390625 
Q 24.90625 48.390625 20.390625 44.140625 
Q 15.875 39.890625 15.1875 32.171875 
z
" id="DejaVuSans-101"/>
      <path d="M 54.890625 33.015625 
L 54.890625 0 
L 45.90625 0 
L 45.90625 32.71875 
Q 45.90625 40.484375 42.875 44.328125 
Q 39.84375 48.1875 33.796875 48.1875 
Q 26.515625 48.1875 22.3125 43.546875 
Q 18.109375 38.921875 18.109375 30.90625 
L 18.109375 0 
L 9.078125 0 
L 9.078125 54.6875 
L 18.109375 54.6875 
L 18.109375 46.1875 
Q 21.34375 51.125 25.703125 53.5625 
Q 30.078125 56 35.796875 56 
Q 45.21875 56 50.046875 50.171875 
Q 54.890625 44.34375 54.890625 33.015625 
z
" id="DejaVuSans-110"/>
      <path d="M 41.109375 46.296875 
Q 39.59375 47.171875 37.8125 47.578125 
Q 36.03125 48 33.890625 48 
Q 26.265625 48 22.1875 43.046875 
Q 18.109375 38.09375 18.109375 28.8125 
L 18.109375 0 
L 9.078125 0 
L 9.078125 54.6875 
L 18.109375 54.6875 
L 18.109375 46.1875 
Q 20.953125 51.171875 25.484375 53.578125 
Q 30.03125 56 36.53125 56 
Q 37.453125 56 38.578125 55.875 
Q 39.703125 55.765625 41.0625 55.515625 
z
" id="DejaVuSans-114"/>
      <path d="M 34.28125 27.484375 
Q 23.390625 27.484375 19.1875 25 
Q 14.984375 22.515625 14.984375 16.5 
Q 14.984375 11.71875 18.140625 8.90625 
Q 21.296875 6.109375 26.703125 6.109375 
Q 34.1875 6.109375 38.703125 11.40625 
Q 43.21875 16.703125 43.21875 25.484375 
L 43.21875 27.484375 
z
M 52.203125 31.203125 
L 52.203125 0 
L 43.21875 0 
L 43.21875 8.296875 
Q 40.140625 3.328125 35.546875 0.953125 
Q 30.953125 -1.421875 24.3125 -1.421875 
Q 15.921875 -1.421875 10.953125 3.296875 
Q 6 8.015625 6 15.921875 
Q 6 25.140625 12.171875 29.828125 
Q 18.359375 34.515625 30.609375 34.515625 
L 43.21875 34.515625 
L 43.21875 35.40625 
Q 43.21875 41.609375 39.140625 45 
Q 35.0625 48.390625 27.6875 48.390625 
Q 23 48.390625 18.546875 47.265625 
Q 14.109375 46.140625 10.015625 43.890625 
L 10.015625 52.203125 
Q 14.9375 54.109375 19.578125 55.046875 
Q 24.21875 56 28.609375 56 
Q 40.484375 56 46.34375 49.84375 
Q 52.203125 43.703125 52.203125 31.203125 
z
" id="DejaVuSans-97"/>
      <path d="M 18.3125 70.21875 
L 18.3125 54.6875 
L 36.8125 54.6875 
L 36.8125 47.703125 
L 18.3125 47.703125 
L 18.3125 18.015625 
Q 18.3125 11.328125 20.140625 9.421875 
Q 21.96875 7.515625 27.59375 7.515625 
L 36.8125 7.515625 
L 36.8125 0 
L 27.59375 0 
Q 17.1875 0 13.234375 3.875 
Q 9.28125 7.765625 9.28125 18.015625 
L 9.28125 47.703125 
L 2.6875 47.703125 
L 2.6875 54.6875 
L 9.28125 54.6875 
L 9.28125 70.21875 
z
" id="DejaVuSans-116"/>
      <path d="M 9.421875 54.6875 
L 18.40625 54.6875 
L 18.40625 0 
L 9.421875 0 
z
M 9.421875 75.984375 
L 18.40625 75.984375 
L 18.40625 64.59375 
L 9.421875 64.59375 
z
" id="DejaVuSans-105"/>
      <path d="M 30.609375 48.390625 
Q 23.390625 48.390625 19.1875 42.75 
Q 14.984375 37.109375 14.984375 27.296875 
Q 14.984375 17.484375 19.15625 11.84375 
Q 23.34375 6.203125 30.609375 6.203125 
Q 37.796875 6.203125 41.984375 11.859375 
Q 46.1875 17.53125 46.1875 27.296875 
Q 46.1875 37.015625 41.984375 42.703125 
Q 37.796875 48.390625 30.609375 48.390625 
z
M 30.609375 56 
Q 42.328125 56 49.015625 48.375 
Q 55.71875 40.765625 55.71875 27.296875 
Q 55.71875 13.875 49.015625 6.21875 
Q 42.328125 -1.421875 30.609375 -1.421875 
Q 18.84375 -1.421875 12.171875 6.21875 
Q 5.515625 13.875 5.515625 27.296875 
Q 5.515625 40.765625 12.171875 48.375 
Q 18.84375 56 30.609375 56 
z
" id="DejaVuSans-111"/>
      <path d="M 44.28125 53.078125 
L 44.28125 44.578125 
Q 40.484375 46.53125 36.375 47.5 
Q 32.28125 48.484375 27.875 48.484375 
Q 21.1875 48.484375 17.84375 46.4375 
Q 14.5 44.390625 14.5 40.28125 
Q 14.5 37.15625 16.890625 35.375 
Q 19.28125 33.59375 26.515625 31.984375 
L 29.59375 31.296875 
Q 39.15625 29.25 43.1875 25.515625 
Q 47.21875 21.78125 47.21875 15.09375 
Q 47.21875 7.46875 41.1875 3.015625 
Q 35.15625 -1.421875 24.609375 -1.421875 
Q 20.21875 -1.421875 15.453125 -0.5625 
Q 10.6875 0.296875 5.421875 2 
L 5.421875 11.28125 
Q 10.40625 8.6875 15.234375 7.390625 
Q 20.0625 6.109375 24.8125 6.109375 
Q 31.15625 6.109375 34.5625 8.28125 
Q 37.984375 10.453125 37.984375 14.40625 
Q 37.984375 18.0625 35.515625 20.015625 
Q 33.0625 21.96875 24.703125 23.78125 
L 21.578125 24.515625 
Q 13.234375 26.265625 9.515625 29.90625 
Q 5.8125 33.546875 5.8125 39.890625 
Q 5.8125 47.609375 11.28125 51.796875 
Q 16.75 56 26.8125 56 
Q 31.78125 56 36.171875 55.265625 
Q 40.578125 54.546875 44.28125 53.078125 
z
" id="DejaVuSans-115"/>
     </defs>
     <g transform="translate(205.662344 335.860562)scale(0.1 -0.1)">
      <use xlink:href="#DejaVuSans-71"/>
      <use x="77.490234" xlink:href="#DejaVuSans-101"/>
      <use x="139.013672" xlink:href="#DejaVuSans-110"/>
      <use x="202.392578" xlink:href="#DejaVuSans-101"/>
      <use x="263.916016" xlink:href="#DejaVuSans-114"/>
      <use x="305.029297" xlink:href="#DejaVuSans-97"/>
      <use x="366.308594" xlink:href="#DejaVuSans-116"/>
      <use x="405.517578" xlink:href="#DejaVuSans-105"/>
      <use x="433.300781" xlink:href="#DejaVuSans-111"/>
      <use x="494.482422" xlink:href="#DejaVuSans-110"/>
      <use x="557.861328" xlink:href="#DejaVuSans-115"/>
     </g>
    </g>
   </g>
   <g id="matplotlib.axis_2">
    <g id="ytick_1">
     <g id="line2d_6">
      <defs>
       <path d="M 0 0 
L -3.5 0 
" id="md9aa98de55" style="stroke:#000000;stroke-width:0.8;"/>
      </defs>
      <g>
       <use style="stroke:#000000;stroke-width:0.8;" x="57.6" xlink:href="#md9aa98de55" y="307.584"/>
      </g>
     </g>
     <g id="text_7">
      <!-- 0 -->
      <g transform="translate(44.2375 311.383219)scale(0.1 -0.1)">
       <use xlink:href="#DejaVuSans-48"/>
      </g>
     </g>
    </g>
    <g id="ytick_2">
     <g id="line2d_7">
      <g>
       <use style="stroke:#000000;stroke-width:0.8;" x="57.6" xlink:href="#md9aa98de55" y="274.015788"/>
      </g>
     </g>
     <g id="text_8">
      <!-- 20 -->
      <g transform="translate(37.875 277.815007)scale(0.1 -0.1)">
       <use xlink:href="#DejaVuSans-50"/>
       <use x="63.623047" xlink:href="#DejaVuSans-48"/>
      </g>
     </g>
    </g>
    <g id="ytick_3">
     <g id="line2d_8">
      <g>
       <use style="stroke:#000000;stroke-width:0.8;" x="57.6" xlink:href="#md9aa98de55" y="240.447576"/>
      </g>
     </g>
     <g id="text_9">
      <!-- 40 -->
      <defs>
       <path d="M 37.796875 64.3125 
L 12.890625 25.390625 
L 37.796875 25.390625 
z
M 35.203125 72.90625 
L 47.609375 72.90625 
L 47.609375 25.390625 
L 58.015625 25.390625 
L 58.015625 17.1875 
L 47.609375 17.1875 
L 47.609375 0 
L 37.796875 0 
L 37.796875 17.1875 
L 4.890625 17.1875 
L 4.890625 26.703125 
z
" id="DejaVuSans-52"/>
      </defs>
      <g transform="translate(37.875 244.246795)scale(0.1 -0.1)">
       <use xlink:href="#DejaVuSans-52"/>
       <use x="63.623047" xlink:href="#DejaVuSans-48"/>
      </g>
     </g>
    </g>
    <g id="ytick_4">
     <g id="line2d_9">
      <g>
       <use style="stroke:#000000;stroke-width:0.8;" x="57.6" xlink:href="#md9aa98de55" y="206.879364"/>
      </g>
     </g>
     <g id="text_10">
      <!-- 60 -->
      <defs>
       <path d="M 33.015625 40.375 
Q 26.375 40.375 22.484375 35.828125 
Q 18.609375 31.296875 18.609375 23.390625 
Q 18.609375 15.53125 22.484375 10.953125 
Q 26.375 6.390625 33.015625 6.390625 
Q 39.65625 6.390625 43.53125 10.953125 
Q 47.40625 15.53125 47.40625 23.390625 
Q 47.40625 31.296875 43.53125 35.828125 
Q 39.65625 40.375 33.015625 40.375 
z
M 52.59375 71.296875 
L 52.59375 62.3125 
Q 48.875 64.0625 45.09375 64.984375 
Q 41.3125 65.921875 37.59375 65.921875 
Q 27.828125 65.921875 22.671875 59.328125 
Q 17.53125 52.734375 16.796875 39.40625 
Q 19.671875 43.65625 24.015625 45.921875 
Q 28.375 48.1875 33.59375 48.1875 
Q 44.578125 48.1875 50.953125 41.515625 
Q 57.328125 34.859375 57.328125 23.390625 
Q 57.328125 12.15625 50.6875 5.359375 
Q 44.046875 -1.421875 33.015625 -1.421875 
Q 20.359375 -1.421875 13.671875 8.265625 
Q 6.984375 17.96875 6.984375 36.375 
Q 6.984375 53.65625 15.1875 63.9375 
Q 23.390625 74.21875 37.203125 74.21875 
Q 40.921875 74.21875 44.703125 73.484375 
Q 48.484375 72.75 52.59375 71.296875 
z
" id="DejaVuSans-54"/>
      </defs>
      <g transform="translate(37.875 210.678583)scale(0.1 -0.1)">
       <use xlink:href="#DejaVuSans-54"/>
       <use x="63.623047" xlink:href="#DejaVuSans-48"/>
      </g>
     </g>
    </g>
    <g id="ytick_5">
     <g id="line2d_10">
      <g>
       <use style="stroke:#000000;stroke-width:0.8;" x="57.6" xlink:href="#md9aa98de55" y="173.311152"/>
      </g>
     </g>
     <g id="text_11">
      <!-- 80 -->
      <defs>
       <path d="M 31.78125 34.625 
Q 24.75 34.625 20.71875 30.859375 
Q 16.703125 27.09375 16.703125 20.515625 
Q 16.703125 13.921875 20.71875 10.15625 
Q 24.75 6.390625 31.78125 6.390625 
Q 38.8125 6.390625 42.859375 10.171875 
Q 46.921875 13.96875 46.921875 20.515625 
Q 46.921875 27.09375 42.890625 30.859375 
Q 38.875 34.625 31.78125 34.625 
z
M 21.921875 38.8125 
Q 15.578125 40.375 12.03125 44.71875 
Q 8.5 49.078125 8.5 55.328125 
Q 8.5 64.0625 14.71875 69.140625 
Q 20.953125 74.21875 31.78125 74.21875 
Q 42.671875 74.21875 48.875 69.140625 
Q 55.078125 64.0625 55.078125 55.328125 
Q 55.078125 49.078125 51.53125 44.71875 
Q 48 40.375 41.703125 38.8125 
Q 48.828125 37.15625 52.796875 32.3125 
Q 56.78125 27.484375 56.78125 20.515625 
Q 56.78125 9.90625 50.3125 4.234375 
Q 43.84375 -1.421875 31.78125 -1.421875 
Q 19.734375 -1.421875 13.25 4.234375 
Q 6.78125 9.90625 6.78125 20.515625 
Q 6.78125 27.484375 10.78125 32.3125 
Q 14.796875 37.15625 21.921875 38.8125 
z
M 18.3125 54.390625 
Q 18.3125 48.734375 21.84375 45.5625 
Q 25.390625 42.390625 31.78125 42.390625 
Q 38.140625 42.390625 41.71875 45.5625 
Q 45.3125 48.734375 45.3125 54.390625 
Q 45.3125 60.0625 41.71875 63.234375 
Q 38.140625 66.40625 31.78125 66.40625 
Q 25.390625 66.40625 21.84375 63.234375 
Q 18.3125 60.0625 18.3125 54.390625 
z
" id="DejaVuSans-56"/>
      </defs>
      <g transform="translate(37.875 177.110371)scale(0.1 -0.1)">
       <use xlink:href="#DejaVuSans-56"/>
       <use x="63.623047" xlink:href="#DejaVuSans-48"/>
      </g>
     </g>
    </g>
    <g id="ytick_6">
     <g id="line2d_11">
      <g>
       <use style="stroke:#000000;stroke-width:0.8;" x="57.6" xlink:href="#md9aa98de55" y="139.74294"/>
      </g>
     </g>
     <g id="text_12">
      <!-- 100 -->
      <g transform="translate(31.5125 143.542159)scale(0.1 -0.1)">
       <use xlink:href="#DejaVuSans-49"/>
       <use x="63.623047" xlink:href="#DejaVuSans-48"/>
       <use x="127.246094" xlink:href="#DejaVuSans-48"/>
      </g>
     </g>
    </g>
    <g id="ytick_7">
     <g id="line2d_12">
      <g>
       <use style="stroke:#000000;stroke-width:0.8;" x="57.6" xlink:href="#md9aa98de55" y="106.174728"/>
      </g>
     </g>
     <g id="text_13">
      <!-- 120 -->
      <g transform="translate(31.5125 109.973947)scale(0.1 -0.1)">
       <use xlink:href="#DejaVuSans-49"/>
       <use x="63.623047" xlink:href="#DejaVuSans-50"/>
       <use x="127.246094" xlink:href="#DejaVuSans-48"/>
      </g>
     </g>
    </g>
    <g id="ytick_8">
     <g id="line2d_13">
      <g>
       <use style="stroke:#000000;stroke-width:0.8;" x="57.6" xlink:href="#md9aa98de55" y="72.606517"/>
      </g>
     </g>
     <g id="text_14">
      <!-- 140 -->
      <g transform="translate(31.5125 76.405735)scale(0.1 -0.1)">
       <use xlink:href="#DejaVuSans-49"/>
       <use x="63.623047" xlink:href="#DejaVuSans-52"/>
       <use x="127.246094" xlink:href="#DejaVuSans-48"/>
      </g>
     </g>
    </g>
    <g id="text_15">
     <!-- Size per Species -->
     <defs>
      <path d="M 53.515625 70.515625 
L 53.515625 60.890625 
Q 47.90625 63.578125 42.921875 64.890625 
Q 37.9375 66.21875 33.296875 66.21875 
Q 25.25 66.21875 20.875 63.09375 
Q 16.5 59.96875 16.5 54.203125 
Q 16.5 49.359375 19.40625 46.890625 
Q 22.3125 44.4375 30.421875 42.921875 
L 36.375 41.703125 
Q 47.40625 39.59375 52.65625 34.296875 
Q 57.90625 29 57.90625 20.125 
Q 57.90625 9.515625 50.796875 4.046875 
Q 43.703125 -1.421875 29.984375 -1.421875 
Q 24.8125 -1.421875 18.96875 -0.25 
Q 13.140625 0.921875 6.890625 3.21875 
L 6.890625 13.375 
Q 12.890625 10.015625 18.65625 8.296875 
Q 24.421875 6.59375 29.984375 6.59375 
Q 38.421875 6.59375 43.015625 9.90625 
Q 47.609375 13.234375 47.609375 19.390625 
Q 47.609375 24.75 44.3125 27.78125 
Q 41.015625 30.8125 33.5 32.328125 
L 27.484375 33.5 
Q 16.453125 35.6875 11.515625 40.375 
Q 6.59375 45.0625 6.59375 53.421875 
Q 6.59375 63.09375 13.40625 68.65625 
Q 20.21875 74.21875 32.171875 74.21875 
Q 37.3125 74.21875 42.625 73.28125 
Q 47.953125 72.359375 53.515625 70.515625 
z
" id="DejaVuSans-83"/>
      <path d="M 5.515625 54.6875 
L 48.1875 54.6875 
L 48.1875 46.484375 
L 14.40625 7.171875 
L 48.1875 7.171875 
L 48.1875 0 
L 4.296875 0 
L 4.296875 8.203125 
L 38.09375 47.515625 
L 5.515625 47.515625 
z
" id="DejaVuSans-122"/>
      <path id="DejaVuSans-32"/>
      <path d="M 18.109375 8.203125 
L 18.109375 -20.796875 
L 9.078125 -20.796875 
L 9.078125 54.6875 
L 18.109375 54.6875 
L 18.109375 46.390625 
Q 20.953125 51.265625 25.265625 53.625 
Q 29.59375 56 35.59375 56 
Q 45.5625 56 51.78125 48.09375 
Q 58.015625 40.1875 58.015625 27.296875 
Q 58.015625 14.40625 51.78125 6.484375 
Q 45.5625 -1.421875 35.59375 -1.421875 
Q 29.59375 -1.421875 25.265625 0.953125 
Q 20.953125 3.328125 18.109375 8.203125 
z
M 48.6875 27.296875 
Q 48.6875 37.203125 44.609375 42.84375 
Q 40.53125 48.484375 33.40625 48.484375 
Q 26.265625 48.484375 22.1875 42.84375 
Q 18.109375 37.203125 18.109375 27.296875 
Q 18.109375 17.390625 22.1875 11.75 
Q 26.265625 6.109375 33.40625 6.109375 
Q 40.53125 6.109375 44.609375 11.75 
Q 48.6875 17.390625 48.6875 27.296875 
z
" id="DejaVuSans-112"/>
      <path d="M 48.78125 52.59375 
L 48.78125 44.1875 
Q 44.96875 46.296875 41.140625 47.34375 
Q 37.3125 48.390625 33.40625 48.390625 
Q 24.65625 48.390625 19.8125 42.84375 
Q 14.984375 37.3125 14.984375 27.296875 
Q 14.984375 17.28125 19.8125 11.734375 
Q 24.65625 6.203125 33.40625 6.203125 
Q 37.3125 6.203125 41.140625 7.25 
Q 44.96875 8.296875 48.78125 10.40625 
L 48.78125 2.09375 
Q 45.015625 0.34375 40.984375 -0.53125 
Q 36.96875 -1.421875 32.421875 -1.421875 
Q 20.0625 -1.421875 12.78125 6.34375 
Q 5.515625 14.109375 5.515625 27.296875 
Q 5.515625 40.671875 12.859375 48.328125 
Q 20.21875 56 33.015625 56 
Q 37.15625 56 41.109375 55.140625 
Q 45.0625 54.296875 48.78125 52.59375 
z
" id="DejaVuSans-99"/>
     </defs>
     <g transform="translate(25.432812 215.520969)rotate(-90)scale(0.1 -0.1)">
      <use xlink:href="#DejaVuSans-83"/>
      <use x="63.476562" xlink:href="#DejaVuSans-105"/>
      <use x="91.259766" xlink:href="#DejaVuSans-122"/>
      <use x="143.75" xlink:href="#DejaVuSans-101"/>
      <use x="205.273438" xlink:href="#DejaVuSans-32"/>
      <use x="237.060547" xlink:href="#DejaVuSans-112"/>
      <use x="300.537109" xlink:href="#DejaVuSans-101"/>
      <use x="362.060547" xlink:href="#DejaVuSans-114"/>
      <use x="403.173828" xlink:href="#DejaVuSans-32"/>
      <use x="434.960938" xlink:href="#DejaVuSans-83"/>
      <use x="498.4375" xlink:href="#DejaVuSans-112"/>
      <use x="561.914062" xlink:href="#DejaVuSans-101"/>
      <use x="623.4375" xlink:href="#DejaVuSans-99"/>
      <use x="678.417969" xlink:href="#DejaVuSans-105"/>
      <use x="706.201172" xlink:href="#DejaVuSans-101"/>
      <use x="767.724609" xlink:href="#DejaVuSans-115"/>
     </g>
    </g>
   </g>
   <g id="patch_3">
    <path d="M 57.6 307.584 
L 57.6 41.472 
" style="fill:none;stroke:#000000;stroke-linecap:square;stroke-linejoin:miter;stroke-width:0.8;"/>
   </g>
   <g id="patch_4">
    <path d="M 414.72 307.584 
L 414.72 41.472 
" style="fill:none;stroke:#000000;stroke-linecap:square;stroke-linejoin:miter;stroke-width:0.8;"/>
   </g>
   <g id="patch_5">
    <path d="M 57.6 307.584 
L 414.72 307.584 
" style="fill:none;stroke:#000000;stroke-linecap:square;stroke-linejoin:miter;stroke-width:0.8;"/>
   </g>
   <g id="patch_6">
    <path d="M 57.6 41.472 
L 414.72 41.472 
" style="fill:none;stroke:#000000;stroke-linecap:square;stroke-linejoin:miter;stroke-width:0.8;"/>
   </g>
   <g id="text_16">
    <!-- Speciation -->
    <g transform="translate(204.714375 35.472)scale(0.12 -0.12)">
     <use xlink:href="#DejaVuSans-83"/>
     <use x="63.476562" xlink:href="#DejaVuSans-112"/>
     <use x="126.953125" xlink:href="#DejaVuSans-101"/>
     <use x="188.476562" xlink:href="#DejaVuSans-99"/>
     <use x="243.457031" xlink:href="#DejaVuSans-105"/>
     <use x="271.240234" xlink:href="#DejaVuSans-97"/>
     <use x="332.519531" xlink:href="#DejaVuSans-116"/>
     <use x="371.728516" xlink:href="#DejaVuSans-105"/>
     <use x="399.511719" xlink:href="#DejaVuSans-111"/>
     <use x="460.693359" xlink:href="#DejaVuSans-110"/>
    </g>
   </g>
  </g>
 </g>
 <defs>
  <clipPath id="p97717f363b">
   <rect height="266.112" width="357.12" x="57.6" y="41.472"/>
  </clipPath>
 </defs>
</svg>
