<?xml version="1.0" encoding="utf-8" standalone="no"?>
<!DOCTYPE svg PUBLIC "-//W3C//DTD SVG 1.1//EN"
  "http://www.w3.org/Graphics/SVG/1.1/DTD/svg11.dtd">
<!-- Created with matplotlib (https://matplotlib.org/) -->
<svg height="345.6pt" version="1.1" viewBox="0 0 460.8 345.6" width="460.8pt" xmlns="http://www.w3.org/2000/svg" xmlns:xlink="http://www.w3.org/1999/xlink">
 <defs>
  <style type="text/css">
*{stroke-linecap:butt;stroke-linejoin:round;}
  </style>
 </defs>
 <g id="figure_1">
  <g id="patch_1">
   <path d="M 0 345.6 
L 460.8 345.6 
L 460.8 0 
L 0 0 
z
" style="fill:#ffffff;"/>
  </g>
  <g id="axes_1">
   <g id="patch_2">
    <path d="M 57.6 307.584 
L 414.72 307.584 
L 414.72 41.472 
L 57.6 41.472 
z
" style="fill:#ffffff;"/>
   </g>
   <g id="matplotlib.axis_1">
    <g id="xtick_1">
     <g id="line2d_1">
      <path clip-path="url(#pfb28152a62)" d="M 73.832727 307.584 
L 73.832727 41.472 
" style="fill:none;stroke:#b0b0b0;stroke-linecap:square;stroke-width:0.8;"/>
     </g>
     <g id="line2d_2">
      <defs>
       <path d="M 0 0 
L 0 3.5 
" id="m763140e053" style="stroke:#000000;stroke-width:0.8;"/>
      </defs>
      <g>
       <use style="stroke:#000000;stroke-width:0.8;" x="73.832727" xlink:href="#m763140e053" y="307.584"/>
      </g>
     </g>
     <g id="text_1">
      <!-- 0 -->
      <defs>
       <path d="M 31.78125 66.40625 
Q 24.171875 66.40625 20.328125 58.90625 
Q 16.5 51.421875 16.5 36.375 
Q 16.5 21.390625 20.328125 13.890625 
Q 24.171875 6.390625 31.78125 6.390625 
Q 39.453125 6.390625 43.28125 13.890625 
Q 47.125 21.390625 47.125 36.375 
Q 47.125 51.421875 43.28125 58.90625 
Q 39.453125 66.40625 31.78125 66.40625 
z
M 31.78125 74.21875 
Q 44.046875 74.21875 50.515625 64.515625 
Q 56.984375 54.828125 56.984375 36.375 
Q 56.984375 17.96875 50.515625 8.265625 
Q 44.046875 -1.421875 31.78125 -1.421875 
Q 19.53125 -1.421875 13.0625 8.265625 
Q 6.59375 17.96875 6.59375 36.375 
Q 6.59375 54.828125 13.0625 64.515625 
Q 19.53125 74.21875 31.78125 74.21875 
z
" id="DejaVuSans-48"/>
      </defs>
      <g transform="translate(70.651477 322.182437)scale(0.1 -0.1)">
       <use xlink:href="#DejaVuSans-48"/>
      </g>
     </g>
    </g>
    <g id="xtick_2">
     <g id="line2d_3">
      <path clip-path="url(#pfb28152a62)" d="M 138.828632 307.584 
L 138.828632 41.472 
" style="fill:none;stroke:#b0b0b0;stroke-linecap:square;stroke-width:0.8;"/>
     </g>
     <g id="line2d_4">
      <g>
       <use style="stroke:#000000;stroke-width:0.8;" x="138.828632" xlink:href="#m763140e053" y="307.584"/>
      </g>
     </g>
     <g id="text_2">
      <!-- 200 -->
      <defs>
       <path d="M 19.1875 8.296875 
L 53.609375 8.296875 
L 53.609375 0 
L 7.328125 0 
L 7.328125 8.296875 
Q 12.9375 14.109375 22.625 23.890625 
Q 32.328125 33.6875 34.8125 36.53125 
Q 39.546875 41.84375 41.421875 45.53125 
Q 43.3125 49.21875 43.3125 52.78125 
Q 43.3125 58.59375 39.234375 62.25 
Q 35.15625 65.921875 28.609375 65.921875 
Q 23.96875 65.921875 18.8125 64.3125 
Q 13.671875 62.703125 7.8125 59.421875 
L 7.8125 69.390625 
Q 13.765625 71.78125 18.9375 73 
Q 24.125 74.21875 28.421875 74.21875 
Q 39.75 74.21875 46.484375 68.546875 
Q 53.21875 62.890625 53.21875 53.421875 
Q 53.21875 48.921875 51.53125 44.890625 
Q 49.859375 40.875 45.40625 35.40625 
Q 44.1875 33.984375 37.640625 27.21875 
Q 31.109375 20.453125 19.1875 8.296875 
z
" id="DejaVuSans-50"/>
      </defs>
      <g transform="translate(129.284882 322.182437)scale(0.1 -0.1)">
       <use xlink:href="#DejaVuSans-50"/>
       <use x="63.623047" xlink:href="#DejaVuSans-48"/>
       <use x="127.246094" xlink:href="#DejaVuSans-48"/>
      </g>
     </g>
    </g>
    <g id="xtick_3">
     <g id="line2d_5">
      <path clip-path="url(#pfb28152a62)" d="M 203.824537 307.584 
L 203.824537 41.472 
" style="fill:none;stroke:#b0b0b0;stroke-linecap:square;stroke-width:0.8;"/>
     </g>
     <g id="line2d_6">
      <g>
       <use style="stroke:#000000;stroke-width:0.8;" x="203.824537" xlink:href="#m763140e053" y="307.584"/>
      </g>
     </g>
     <g id="text_3">
      <!-- 400 -->
      <defs>
       <path d="M 37.796875 64.3125 
L 12.890625 25.390625 
L 37.796875 25.390625 
z
M 35.203125 72.90625 
L 47.609375 72.90625 
L 47.609375 25.390625 
L 58.015625 25.390625 
L 58.015625 17.1875 
L 47.609375 17.1875 
L 47.609375 0 
L 37.796875 0 
L 37.796875 17.1875 
L 4.890625 17.1875 
L 4.890625 26.703125 
z
" id="DejaVuSans-52"/>
      </defs>
      <g transform="translate(194.280787 322.182437)scale(0.1 -0.1)">
       <use xlink:href="#DejaVuSans-52"/>
       <use x="63.623047" xlink:href="#DejaVuSans-48"/>
       <use x="127.246094" xlink:href="#DejaVuSans-48"/>
      </g>
     </g>
    </g>
    <g id="xtick_4">
     <g id="line2d_7">
      <path clip-path="url(#pfb28152a62)" d="M 268.820442 307.584 
L 268.820442 41.472 
" style="fill:none;stroke:#b0b0b0;stroke-linecap:square;stroke-width:0.8;"/>
     </g>
     <g id="line2d_8">
      <g>
       <use style="stroke:#000000;stroke-width:0.8;" x="268.820442" xlink:href="#m763140e053" y="307.584"/>
      </g>
     </g>
     <g id="text_4">
      <!-- 600 -->
      <defs>
       <path d="M 33.015625 40.375 
Q 26.375 40.375 22.484375 35.828125 
Q 18.609375 31.296875 18.609375 23.390625 
Q 18.609375 15.53125 22.484375 10.953125 
Q 26.375 6.390625 33.015625 6.390625 
Q 39.65625 6.390625 43.53125 10.953125 
Q 47.40625 15.53125 47.40625 23.390625 
Q 47.40625 31.296875 43.53125 35.828125 
Q 39.65625 40.375 33.015625 40.375 
z
M 52.59375 71.296875 
L 52.59375 62.3125 
Q 48.875 64.0625 45.09375 64.984375 
Q 41.3125 65.921875 37.59375 65.921875 
Q 27.828125 65.921875 22.671875 59.328125 
Q 17.53125 52.734375 16.796875 39.40625 
Q 19.671875 43.65625 24.015625 45.921875 
Q 28.375 48.1875 33.59375 48.1875 
Q 44.578125 48.1875 50.953125 41.515625 
Q 57.328125 34.859375 57.328125 23.390625 
Q 57.328125 12.15625 50.6875 5.359375 
Q 44.046875 -1.421875 33.015625 -1.421875 
Q 20.359375 -1.421875 13.671875 8.265625 
Q 6.984375 17.96875 6.984375 36.375 
Q 6.984375 53.65625 15.1875 63.9375 
Q 23.390625 74.21875 37.203125 74.21875 
Q 40.921875 74.21875 44.703125 73.484375 
Q 48.484375 72.75 52.59375 71.296875 
z
" id="DejaVuSans-54"/>
      </defs>
      <g transform="translate(259.276692 322.182437)scale(0.1 -0.1)">
       <use xlink:href="#DejaVuSans-54"/>
       <use x="63.623047" xlink:href="#DejaVuSans-48"/>
       <use x="127.246094" xlink:href="#DejaVuSans-48"/>
      </g>
     </g>
    </g>
    <g id="xtick_5">
     <g id="line2d_9">
      <path clip-path="url(#pfb28152a62)" d="M 333.816347 307.584 
L 333.816347 41.472 
" style="fill:none;stroke:#b0b0b0;stroke-linecap:square;stroke-width:0.8;"/>
     </g>
     <g id="line2d_10">
      <g>
       <use style="stroke:#000000;stroke-width:0.8;" x="333.816347" xlink:href="#m763140e053" y="307.584"/>
      </g>
     </g>
     <g id="text_5">
      <!-- 800 -->
      <defs>
       <path d="M 31.78125 34.625 
Q 24.75 34.625 20.71875 30.859375 
Q 16.703125 27.09375 16.703125 20.515625 
Q 16.703125 13.921875 20.71875 10.15625 
Q 24.75 6.390625 31.78125 6.390625 
Q 38.8125 6.390625 42.859375 10.171875 
Q 46.921875 13.96875 46.921875 20.515625 
Q 46.921875 27.09375 42.890625 30.859375 
Q 38.875 34.625 31.78125 34.625 
z
M 21.921875 38.8125 
Q 15.578125 40.375 12.03125 44.71875 
Q 8.5 49.078125 8.5 55.328125 
Q 8.5 64.0625 14.71875 69.140625 
Q 20.953125 74.21875 31.78125 74.21875 
Q 42.671875 74.21875 48.875 69.140625 
Q 55.078125 64.0625 55.078125 55.328125 
Q 55.078125 49.078125 51.53125 44.71875 
Q 48 40.375 41.703125 38.8125 
Q 48.828125 37.15625 52.796875 32.3125 
Q 56.78125 27.484375 56.78125 20.515625 
Q 56.78125 9.90625 50.3125 4.234375 
Q 43.84375 -1.421875 31.78125 -1.421875 
Q 19.734375 -1.421875 13.25 4.234375 
Q 6.78125 9.90625 6.78125 20.515625 
Q 6.78125 27.484375 10.78125 32.3125 
Q 14.796875 37.15625 21.921875 38.8125 
z
M 18.3125 54.390625 
Q 18.3125 48.734375 21.84375 45.5625 
Q 25.390625 42.390625 31.78125 42.390625 
Q 38.140625 42.390625 41.71875 45.5625 
Q 45.3125 48.734375 45.3125 54.390625 
Q 45.3125 60.0625 41.71875 63.234375 
Q 38.140625 66.40625 31.78125 66.40625 
Q 25.390625 66.40625 21.84375 63.234375 
Q 18.3125 60.0625 18.3125 54.390625 
z
" id="DejaVuSans-56"/>
      </defs>
      <g transform="translate(324.272597 322.182437)scale(0.1 -0.1)">
       <use xlink:href="#DejaVuSans-56"/>
       <use x="63.623047" xlink:href="#DejaVuSans-48"/>
       <use x="127.246094" xlink:href="#DejaVuSans-48"/>
      </g>
     </g>
    </g>
    <g id="xtick_6">
     <g id="line2d_11">
      <path clip-path="url(#pfb28152a62)" d="M 398.812252 307.584 
L 398.812252 41.472 
" style="fill:none;stroke:#b0b0b0;stroke-linecap:square;stroke-width:0.8;"/>
     </g>
     <g id="line2d_12">
      <g>
       <use style="stroke:#000000;stroke-width:0.8;" x="398.812252" xlink:href="#m763140e053" y="307.584"/>
      </g>
     </g>
     <g id="text_6">
      <!-- 1000 -->
      <defs>
       <path d="M 12.40625 8.296875 
L 28.515625 8.296875 
L 28.515625 63.921875 
L 10.984375 60.40625 
L 10.984375 69.390625 
L 28.421875 72.90625 
L 38.28125 72.90625 
L 38.28125 8.296875 
L 54.390625 8.296875 
L 54.390625 0 
L 12.40625 0 
z
" id="DejaVuSans-49"/>
      </defs>
      <g transform="translate(386.087252 322.182437)scale(0.1 -0.1)">
       <use xlink:href="#DejaVuSans-49"/>
       <use x="63.623047" xlink:href="#DejaVuSans-48"/>
       <use x="127.246094" xlink:href="#DejaVuSans-48"/>
       <use x="190.869141" xlink:href="#DejaVuSans-48"/>
      </g>
     </g>
    </g>
    <g id="text_7">
     <!-- Generations -->
     <defs>
      <path d="M 59.515625 10.40625 
L 59.515625 29.984375 
L 43.40625 29.984375 
L 43.40625 38.09375 
L 69.28125 38.09375 
L 69.28125 6.78125 
Q 63.578125 2.734375 56.6875 0.65625 
Q 49.8125 -1.421875 42 -1.421875 
Q 24.90625 -1.421875 15.25 8.5625 
Q 5.609375 18.5625 5.609375 36.375 
Q 5.609375 54.25 15.25 64.234375 
Q 24.90625 74.21875 42 74.21875 
Q 49.125 74.21875 55.546875 72.453125 
Q 61.96875 70.703125 67.390625 67.28125 
L 67.390625 56.78125 
Q 61.921875 61.421875 55.765625 63.765625 
Q 49.609375 66.109375 42.828125 66.109375 
Q 29.4375 66.109375 22.71875 58.640625 
Q 16.015625 51.171875 16.015625 36.375 
Q 16.015625 21.625 22.71875 14.15625 
Q 29.4375 6.6875 42.828125 6.6875 
Q 48.046875 6.6875 52.140625 7.59375 
Q 56.25 8.5 59.515625 10.40625 
z
" id="DejaVuSans-71"/>
      <path d="M 56.203125 29.59375 
L 56.203125 25.203125 
L 14.890625 25.203125 
Q 15.484375 15.921875 20.484375 11.0625 
Q 25.484375 6.203125 34.421875 6.203125 
Q 39.59375 6.203125 44.453125 7.46875 
Q 49.3125 8.734375 54.109375 11.28125 
L 54.109375 2.78125 
Q 49.265625 0.734375 44.1875 -0.34375 
Q 39.109375 -1.421875 33.890625 -1.421875 
Q 20.796875 -1.421875 13.15625 6.1875 
Q 5.515625 13.8125 5.515625 26.8125 
Q 5.515625 40.234375 12.765625 48.109375 
Q 20.015625 56 32.328125 56 
Q 43.359375 56 49.78125 48.890625 
Q 56.203125 41.796875 56.203125 29.59375 
z
M 47.21875 32.234375 
Q 47.125 39.59375 43.09375 43.984375 
Q 39.0625 48.390625 32.421875 48.390625 
Q 24.90625 48.390625 20.390625 44.140625 
Q 15.875 39.890625 15.1875 32.171875 
z
" id="DejaVuSans-101"/>
      <path d="M 54.890625 33.015625 
L 54.890625 0 
L 45.90625 0 
L 45.90625 32.71875 
Q 45.90625 40.484375 42.875 44.328125 
Q 39.84375 48.1875 33.796875 48.1875 
Q 26.515625 48.1875 22.3125 43.546875 
Q 18.109375 38.921875 18.109375 30.90625 
L 18.109375 0 
L 9.078125 0 
L 9.078125 54.6875 
L 18.109375 54.6875 
L 18.109375 46.1875 
Q 21.34375 51.125 25.703125 53.5625 
Q 30.078125 56 35.796875 56 
Q 45.21875 56 50.046875 50.171875 
Q 54.890625 44.34375 54.890625 33.015625 
z
" id="DejaVuSans-110"/>
      <path d="M 41.109375 46.296875 
Q 39.59375 47.171875 37.8125 47.578125 
Q 36.03125 48 33.890625 48 
Q 26.265625 48 22.1875 43.046875 
Q 18.109375 38.09375 18.109375 28.8125 
L 18.109375 0 
L 9.078125 0 
L 9.078125 54.6875 
L 18.109375 54.6875 
L 18.109375 46.1875 
Q 20.953125 51.171875 25.484375 53.578125 
Q 30.03125 56 36.53125 56 
Q 37.453125 56 38.578125 55.875 
Q 39.703125 55.765625 41.0625 55.515625 
z
" id="DejaVuSans-114"/>
      <path d="M 34.28125 27.484375 
Q 23.390625 27.484375 19.1875 25 
Q 14.984375 22.515625 14.984375 16.5 
Q 14.984375 11.71875 18.140625 8.90625 
Q 21.296875 6.109375 26.703125 6.109375 
Q 34.1875 6.109375 38.703125 11.40625 
Q 43.21875 16.703125 43.21875 25.484375 
L 43.21875 27.484375 
z
M 52.203125 31.203125 
L 52.203125 0 
L 43.21875 0 
L 43.21875 8.296875 
Q 40.140625 3.328125 35.546875 0.953125 
Q 30.953125 -1.421875 24.3125 -1.421875 
Q 15.921875 -1.421875 10.953125 3.296875 
Q 6 8.015625 6 15.921875 
Q 6 25.140625 12.171875 29.828125 
Q 18.359375 34.515625 30.609375 34.515625 
L 43.21875 34.515625 
L 43.21875 35.40625 
Q 43.21875 41.609375 39.140625 45 
Q 35.0625 48.390625 27.6875 48.390625 
Q 23 48.390625 18.546875 47.265625 
Q 14.109375 46.140625 10.015625 43.890625 
L 10.015625 52.203125 
Q 14.9375 54.109375 19.578125 55.046875 
Q 24.21875 56 28.609375 56 
Q 40.484375 56 46.34375 49.84375 
Q 52.203125 43.703125 52.203125 31.203125 
z
" id="DejaVuSans-97"/>
      <path d="M 18.3125 70.21875 
L 18.3125 54.6875 
L 36.8125 54.6875 
L 36.8125 47.703125 
L 18.3125 47.703125 
L 18.3125 18.015625 
Q 18.3125 11.328125 20.140625 9.421875 
Q 21.96875 7.515625 27.59375 7.515625 
L 36.8125 7.515625 
L 36.8125 0 
L 27.59375 0 
Q 17.1875 0 13.234375 3.875 
Q 9.28125 7.765625 9.28125 18.015625 
L 9.28125 47.703125 
L 2.6875 47.703125 
L 2.6875 54.6875 
L 9.28125 54.6875 
L 9.28125 70.21875 
z
" id="DejaVuSans-116"/>
      <path d="M 9.421875 54.6875 
L 18.40625 54.6875 
L 18.40625 0 
L 9.421875 0 
z
M 9.421875 75.984375 
L 18.40625 75.984375 
L 18.40625 64.59375 
L 9.421875 64.59375 
z
" id="DejaVuSans-105"/>
      <path d="M 30.609375 48.390625 
Q 23.390625 48.390625 19.1875 42.75 
Q 14.984375 37.109375 14.984375 27.296875 
Q 14.984375 17.484375 19.15625 11.84375 
Q 23.34375 6.203125 30.609375 6.203125 
Q 37.796875 6.203125 41.984375 11.859375 
Q 46.1875 17.53125 46.1875 27.296875 
Q 46.1875 37.015625 41.984375 42.703125 
Q 37.796875 48.390625 30.609375 48.390625 
z
M 30.609375 56 
Q 42.328125 56 49.015625 48.375 
Q 55.71875 40.765625 55.71875 27.296875 
Q 55.71875 13.875 49.015625 6.21875 
Q 42.328125 -1.421875 30.609375 -1.421875 
Q 18.84375 -1.421875 12.171875 6.21875 
Q 5.515625 13.875 5.515625 27.296875 
Q 5.515625 40.765625 12.171875 48.375 
Q 18.84375 56 30.609375 56 
z
" id="DejaVuSans-111"/>
      <path d="M 44.28125 53.078125 
L 44.28125 44.578125 
Q 40.484375 46.53125 36.375 47.5 
Q 32.28125 48.484375 27.875 48.484375 
Q 21.1875 48.484375 17.84375 46.4375 
Q 14.5 44.390625 14.5 40.28125 
Q 14.5 37.15625 16.890625 35.375 
Q 19.28125 33.59375 26.515625 31.984375 
L 29.59375 31.296875 
Q 39.15625 29.25 43.1875 25.515625 
Q 47.21875 21.78125 47.21875 15.09375 
Q 47.21875 7.46875 41.1875 3.015625 
Q 35.15625 -1.421875 24.609375 -1.421875 
Q 20.21875 -1.421875 15.453125 -0.5625 
Q 10.6875 0.296875 5.421875 2 
L 5.421875 11.28125 
Q 10.40625 8.6875 15.234375 7.390625 
Q 20.0625 6.109375 24.8125 6.109375 
Q 31.15625 6.109375 34.5625 8.28125 
Q 37.984375 10.453125 37.984375 14.40625 
Q 37.984375 18.0625 35.515625 20.015625 
Q 33.0625 21.96875 24.703125 23.78125 
L 21.578125 24.515625 
Q 13.234375 26.265625 9.515625 29.90625 
Q 5.8125 33.546875 5.8125 39.890625 
Q 5.8125 47.609375 11.28125 51.796875 
Q 16.75 56 26.8125 56 
Q 31.78125 56 36.171875 55.265625 
Q 40.578125 54.546875 44.28125 53.078125 
z
" id="DejaVuSans-115"/>
     </defs>
     <g transform="translate(205.662344 335.860562)scale(0.1 -0.1)">
      <use xlink:href="#DejaVuSans-71"/>
      <use x="77.490234" xlink:href="#DejaVuSans-101"/>
      <use x="139.013672" xlink:href="#DejaVuSans-110"/>
      <use x="202.392578" xlink:href="#DejaVuSans-101"/>
      <use x="263.916016" xlink:href="#DejaVuSans-114"/>
      <use x="305.029297" xlink:href="#DejaVuSans-97"/>
      <use x="366.308594" xlink:href="#DejaVuSans-116"/>
      <use x="405.517578" xlink:href="#DejaVuSans-105"/>
      <use x="433.300781" xlink:href="#DejaVuSans-111"/>
      <use x="494.482422" xlink:href="#DejaVuSans-110"/>
      <use x="557.861328" xlink:href="#DejaVuSans-115"/>
     </g>
    </g>
   </g>
   <g id="matplotlib.axis_2">
    <g id="ytick_1">
     <g id="line2d_13">
      <path clip-path="url(#pfb28152a62)" d="M 57.6 302.603133 
L 414.72 302.603133 
" style="fill:none;stroke:#b0b0b0;stroke-linecap:square;stroke-width:0.8;"/>
     </g>
     <g id="line2d_14">
      <defs>
       <path d="M 0 0 
L -3.5 0 
" id="mf020ef73ca" style="stroke:#000000;stroke-width:0.8;"/>
      </defs>
      <g>
       <use style="stroke:#000000;stroke-width:0.8;" x="57.6" xlink:href="#mf020ef73ca" y="302.603133"/>
      </g>
     </g>
     <g id="text_8">
      <!-- 0.0 -->
      <defs>
       <path d="M 10.6875 12.40625 
L 21 12.40625 
L 21 0 
L 10.6875 0 
z
" id="DejaVuSans-46"/>
      </defs>
      <g transform="translate(34.696875 306.402351)scale(0.1 -0.1)">
       <use xlink:href="#DejaVuSans-48"/>
       <use x="63.623047" xlink:href="#DejaVuSans-46"/>
       <use x="95.410156" xlink:href="#DejaVuSans-48"/>
      </g>
     </g>
    </g>
    <g id="ytick_2">
     <g id="line2d_15">
      <path clip-path="url(#pfb28152a62)" d="M 57.6 243.60463 
L 414.72 243.60463 
" style="fill:none;stroke:#b0b0b0;stroke-linecap:square;stroke-width:0.8;"/>
     </g>
     <g id="line2d_16">
      <g>
       <use style="stroke:#000000;stroke-width:0.8;" x="57.6" xlink:href="#mf020ef73ca" y="243.60463"/>
      </g>
     </g>
     <g id="text_9">
      <!-- 0.5 -->
      <defs>
       <path d="M 10.796875 72.90625 
L 49.515625 72.90625 
L 49.515625 64.59375 
L 19.828125 64.59375 
L 19.828125 46.734375 
Q 21.96875 47.46875 24.109375 47.828125 
Q 26.265625 48.1875 28.421875 48.1875 
Q 40.625 48.1875 47.75 41.5 
Q 54.890625 34.8125 54.890625 23.390625 
Q 54.890625 11.625 47.5625 5.09375 
Q 40.234375 -1.421875 26.90625 -1.421875 
Q 22.3125 -1.421875 17.546875 -0.640625 
Q 12.796875 0.140625 7.71875 1.703125 
L 7.71875 11.625 
Q 12.109375 9.234375 16.796875 8.0625 
Q 21.484375 6.890625 26.703125 6.890625 
Q 35.15625 6.890625 40.078125 11.328125 
Q 45.015625 15.765625 45.015625 23.390625 
Q 45.015625 31 40.078125 35.4375 
Q 35.15625 39.890625 26.703125 39.890625 
Q 22.75 39.890625 18.8125 39.015625 
Q 14.890625 38.140625 10.796875 36.28125 
z
" id="DejaVuSans-53"/>
      </defs>
      <g transform="translate(34.696875 247.403848)scale(0.1 -0.1)">
       <use xlink:href="#DejaVuSans-48"/>
       <use x="63.623047" xlink:href="#DejaVuSans-46"/>
       <use x="95.410156" xlink:href="#DejaVuSans-53"/>
      </g>
     </g>
    </g>
    <g id="ytick_3">
     <g id="line2d_17">
      <path clip-path="url(#pfb28152a62)" d="M 57.6 184.606127 
L 414.72 184.606127 
" style="fill:none;stroke:#b0b0b0;stroke-linecap:square;stroke-width:0.8;"/>
     </g>
     <g id="line2d_18">
      <g>
       <use style="stroke:#000000;stroke-width:0.8;" x="57.6" xlink:href="#mf020ef73ca" y="184.606127"/>
      </g>
     </g>
     <g id="text_10">
      <!-- 1.0 -->
      <g transform="translate(34.696875 188.405345)scale(0.1 -0.1)">
       <use xlink:href="#DejaVuSans-49"/>
       <use x="63.623047" xlink:href="#DejaVuSans-46"/>
       <use x="95.410156" xlink:href="#DejaVuSans-48"/>
      </g>
     </g>
    </g>
    <g id="ytick_4">
     <g id="line2d_19">
      <path clip-path="url(#pfb28152a62)" d="M 57.6 125.607624 
L 414.72 125.607624 
" style="fill:none;stroke:#b0b0b0;stroke-linecap:square;stroke-width:0.8;"/>
     </g>
     <g id="line2d_20">
      <g>
       <use style="stroke:#000000;stroke-width:0.8;" x="57.6" xlink:href="#mf020ef73ca" y="125.607624"/>
      </g>
     </g>
     <g id="text_11">
      <!-- 1.5 -->
      <g transform="translate(34.696875 129.406842)scale(0.1 -0.1)">
       <use xlink:href="#DejaVuSans-49"/>
       <use x="63.623047" xlink:href="#DejaVuSans-46"/>
       <use x="95.410156" xlink:href="#DejaVuSans-53"/>
      </g>
     </g>
    </g>
    <g id="ytick_5">
     <g id="line2d_21">
      <path clip-path="url(#pfb28152a62)" d="M 57.6 66.609121 
L 414.72 66.609121 
" style="fill:none;stroke:#b0b0b0;stroke-linecap:square;stroke-width:0.8;"/>
     </g>
     <g id="line2d_22">
      <g>
       <use style="stroke:#000000;stroke-width:0.8;" x="57.6" xlink:href="#mf020ef73ca" y="66.609121"/>
      </g>
     </g>
     <g id="text_12">
      <!-- 2.0 -->
      <g transform="translate(34.696875 70.408339)scale(0.1 -0.1)">
       <use xlink:href="#DejaVuSans-50"/>
       <use x="63.623047" xlink:href="#DejaVuSans-46"/>
       <use x="95.410156" xlink:href="#DejaVuSans-48"/>
      </g>
     </g>
    </g>
    <g id="text_13">
     <!-- Fitness -->
     <defs>
      <path d="M 9.8125 72.90625 
L 51.703125 72.90625 
L 51.703125 64.59375 
L 19.671875 64.59375 
L 19.671875 43.109375 
L 48.578125 43.109375 
L 48.578125 34.8125 
L 19.671875 34.8125 
L 19.671875 0 
L 9.8125 0 
z
" id="DejaVuSans-70"/>
     </defs>
     <g transform="translate(28.617187 192.202219)rotate(-90)scale(0.1 -0.1)">
      <use xlink:href="#DejaVuSans-70"/>
      <use x="57.410156" xlink:href="#DejaVuSans-105"/>
      <use x="85.193359" xlink:href="#DejaVuSans-116"/>
      <use x="124.402344" xlink:href="#DejaVuSans-110"/>
      <use x="187.78125" xlink:href="#DejaVuSans-101"/>
      <use x="249.304688" xlink:href="#DejaVuSans-115"/>
      <use x="301.404297" xlink:href="#DejaVuSans-115"/>
     </g>
    </g>
   </g>
   <g id="line2d_23">
    <path clip-path="url(#pfb28152a62)" d="M 73.832727 295.488 
L 74.807666 294.522652 
L 75.782604 293.771265 
L 76.757543 291.896427 
L 77.082523 290.664449 
L 77.407502 290.453098 
L 77.732482 289.198523 
L 78.057461 288.851615 
L 78.382441 287.608333 
L 78.70742 285.593532 
L 79.0324 285.927051 
L 79.682359 283.021947 
L 80.007338 283.063234 
L 80.332318 281.56105 
L 80.657297 280.635625 
L 80.982277 280.813278 
L 81.307256 281.22552 
L 82.282195 278.140585 
L 82.607174 276.384381 
L 82.932154 273.695014 
L 83.257133 273.631024 
L 83.907093 273.676143 
L 84.232072 272.93042 
L 84.557052 273.00495 
L 85.207011 270.18952 
L 85.53199 271.108832 
L 85.85697 269.98934 
L 86.181949 269.479644 
L 86.506929 267.075684 
L 87.156888 265.697591 
L 87.481867 267.737424 
L 87.806847 267.384604 
L 88.131826 268.672197 
L 88.456806 266.422584 
L 88.781785 266.75969 
L 89.106765 266.03366 
L 89.431744 266.939398 
L 89.756724 265.350739 
L 90.081704 266.110392 
L 90.731663 263.616987 
L 91.056642 263.039458 
L 91.381622 264.448664 
L 91.706601 262.421582 
L 92.031581 261.527679 
L 92.35656 259.476198 
L 92.68154 258.385187 
L 93.331499 253.787907 
L 93.656478 253.160716 
L 93.981458 249.395566 
L 94.306437 249.357604 
L 94.956396 250.873679 
L 95.281376 250.175612 
L 95.606355 248.506318 
L 95.931335 249.053207 
L 96.256314 247.639904 
L 96.906274 244.270403 
L 97.231253 249.686032 
L 97.881212 246.681233 
L 98.206192 245.990807 
L 98.531171 244.345172 
L 98.856151 244.506024 
L 99.18113 243.456799 
L 99.50611 243.901863 
L 100.156069 241.065956 
L 100.481048 242.029599 
L 100.806028 240.219572 
L 101.131007 239.770832 
L 101.455987 240.304725 
L 101.780966 242.216403 
L 102.105946 243.022038 
L 102.430925 242.095846 
L 102.755905 241.592084 
L 103.080885 243.15373 
L 103.405864 242.19819 
L 103.730844 243.713883 
L 104.055823 243.099956 
L 104.380803 241.195149 
L 104.705782 241.475772 
L 105.030762 239.85979 
L 105.355741 241.940987 
L 105.680721 242.581083 
L 106.0057 239.578289 
L 106.33068 240.84503 
L 106.655659 240.221045 
L 106.980639 241.833639 
L 107.305618 239.56071 
L 107.630598 241.474056 
L 107.955577 238.822838 
L 108.280557 237.332955 
L 108.605536 239.244651 
L 108.930516 237.926632 
L 109.255495 239.694183 
L 109.580475 239.440176 
L 109.905455 239.478075 
L 110.555414 242.169055 
L 111.205373 238.410091 
L 111.530352 239.94903 
L 111.855332 238.739011 
L 112.180311 239.2289 
L 112.505291 239.186703 
L 112.83027 241.372922 
L 113.15525 238.609919 
L 113.480229 238.189257 
L 113.805209 238.373191 
L 114.130188 236.523206 
L 114.455168 235.597533 
L 114.780147 238.237763 
L 115.105127 238.711979 
L 115.430106 238.928309 
L 115.755086 238.308935 
L 116.080066 236.875567 
L 116.405045 238.603416 
L 116.730025 237.019917 
L 117.055004 237.223183 
L 117.379984 238.148156 
L 117.704963 238.702244 
L 118.029943 236.039268 
L 118.354922 235.788875 
L 118.679902 237.680737 
L 119.004881 237.453786 
L 119.329861 237.398471 
L 119.65484 237.576289 
L 119.97982 237.034057 
L 120.304799 238.17766 
L 120.629779 240.93627 
L 120.954758 240.697231 
L 121.279738 238.674328 
L 121.604717 238.219302 
L 121.929697 238.198896 
L 122.579656 238.918469 
L 122.904636 238.444343 
L 123.229615 236.625765 
L 123.554595 238.106652 
L 123.879574 237.030688 
L 124.204554 239.24398 
L 124.529533 236.972168 
L 124.854513 236.334935 
L 125.179492 236.317184 
L 125.504472 235.080468 
L 125.829451 237.559017 
L 126.154431 236.32993 
L 126.47941 237.883226 
L 126.80439 235.62757 
L 127.129369 237.828915 
L 127.454349 237.895029 
L 127.779328 238.570486 
L 128.104308 237.767184 
L 128.429287 236.142143 
L 128.754267 238.131784 
L 129.729206 236.883396 
L 130.054185 237.629127 
L 130.379165 235.657268 
L 130.704144 236.394271 
L 131.029124 237.480978 
L 131.354103 236.58236 
L 131.679083 236.888581 
L 132.004062 236.146979 
L 132.329042 238.556242 
L 132.654021 237.485841 
L 133.30398 236.902931 
L 133.62896 238.248352 
L 133.953939 237.128101 
L 134.278919 236.87736 
L 134.603898 234.850105 
L 134.928878 236.897856 
L 135.253857 234.415741 
L 135.578837 234.208761 
L 135.903817 235.733112 
L 136.228796 238.713843 
L 136.553776 236.130736 
L 136.878755 235.272247 
L 137.203735 236.243622 
L 137.528714 235.458926 
L 137.853694 234.335351 
L 138.178673 237.574169 
L 138.503653 235.956827 
L 138.828632 237.637499 
L 139.153612 237.253664 
L 139.478591 235.784649 
L 139.803571 235.330479 
L 140.12855 236.254619 
L 140.45353 237.615161 
L 140.778509 237.648164 
L 141.103489 239.945028 
L 141.428468 237.966421 
L 142.078428 239.260485 
L 142.403407 237.146837 
L 142.728387 235.977937 
L 143.378346 238.452841 
L 143.703325 235.718256 
L 144.028305 235.852298 
L 144.353284 237.433242 
L 144.678264 235.592454 
L 145.003243 236.797452 
L 145.328223 236.48931 
L 145.653202 238.815884 
L 145.978182 235.18849 
L 146.303161 235.225746 
L 146.628141 234.469984 
L 146.95312 231.58249 
L 147.2781 237.440948 
L 147.928059 235.820402 
L 148.253038 238.767234 
L 148.578018 238.141219 
L 148.902998 236.156994 
L 149.227977 235.672947 
L 149.552957 234.608022 
L 149.877936 235.91141 
L 150.202916 235.679752 
L 150.527895 234.28519 
L 150.852875 234.801938 
L 151.177854 236.428976 
L 151.502834 235.418866 
L 151.827813 237.629926 
L 152.152793 234.991236 
L 152.477772 236.534924 
L 152.802752 233.876184 
L 153.127731 234.48285 
L 153.452711 236.549528 
L 154.10267 235.342385 
L 154.427649 232.943729 
L 154.752629 238.875075 
L 155.077609 236.083245 
L 155.727568 237.556063 
L 156.052547 238.340233 
L 156.377527 237.688125 
L 156.702506 238.758567 
L 157.027486 234.620114 
L 157.352465 235.755832 
L 157.677445 235.833656 
L 158.002424 232.963206 
L 158.327404 238.477431 
L 158.652383 237.825667 
L 158.977363 236.537383 
L 159.302342 234.557023 
L 159.627322 235.119704 
L 159.952301 237.360456 
L 160.277281 238.465395 
L 160.60226 238.495303 
L 161.252219 233.010875 
L 161.577199 235.344054 
L 161.902179 235.01664 
L 162.227158 233.348654 
L 162.552138 234.100822 
L 163.202097 238.360363 
L 163.527076 234.660699 
L 163.852056 235.000437 
L 164.177035 233.810972 
L 164.502015 235.631611 
L 164.826994 234.041178 
L 165.151974 235.978385 
L 165.476953 233.595674 
L 165.801933 232.186229 
L 166.126912 233.868503 
L 166.451892 234.515549 
L 166.776871 231.627329 
L 167.101851 233.242297 
L 167.42683 232.736349 
L 167.75181 234.590183 
L 168.07679 233.520407 
L 168.401769 233.720834 
L 169.051728 238.514256 
L 169.376708 234.612469 
L 169.701687 235.246708 
L 170.026667 233.331959 
L 170.351646 236.585385 
L 170.676626 236.502444 
L 171.001605 236.558172 
L 171.326585 236.124523 
L 171.651564 234.670279 
L 171.976544 234.795774 
L 172.301523 234.625507 
L 172.626503 230.876097 
L 172.951482 235.357061 
L 173.276462 234.969059 
L 173.601441 233.636081 
L 173.926421 229.508978 
L 174.2514 231.96408 
L 174.57638 233.063458 
L 174.90136 234.867773 
L 175.226339 233.201888 
L 175.551319 233.076177 
L 175.876298 232.315049 
L 176.201278 234.450949 
L 176.526257 231.433451 
L 176.851237 231.278054 
L 177.176216 233.697335 
L 177.501196 234.753209 
L 177.826175 233.496964 
L 178.151155 232.722262 
L 178.476134 232.628969 
L 178.801114 231.547192 
L 179.126093 232.164162 
L 179.451073 233.235144 
L 179.776052 230.908146 
L 180.101032 231.113033 
L 180.750991 236.707377 
L 181.075971 235.749602 
L 181.40095 232.795222 
L 181.72593 235.466305 
L 182.050909 231.185028 
L 182.375889 234.111136 
L 182.700868 234.092473 
L 183.025848 231.451761 
L 183.350827 232.884613 
L 183.675807 232.779963 
L 184.000786 232.517752 
L 184.325766 233.696542 
L 184.650745 232.28871 
L 184.975725 232.155397 
L 185.300704 231.771713 
L 185.625684 229.985161 
L 185.950663 233.787914 
L 186.275643 230.79773 
L 186.600622 231.979977 
L 186.925602 231.802685 
L 187.250581 232.072985 
L 187.900541 233.403835 
L 188.22552 231.835713 
L 188.5505 232.447892 
L 188.875479 232.731562 
L 189.200459 231.742489 
L 189.525438 231.425168 
L 189.850418 232.653708 
L 190.175397 234.362151 
L 190.500377 232.344564 
L 190.825356 232.490196 
L 191.150336 231.322908 
L 191.800295 231.522083 
L 192.125274 231.441 
L 192.450254 231.88252 
L 192.775233 230.006148 
L 193.100213 231.704262 
L 193.425192 232.321629 
L 193.750172 231.567303 
L 194.075152 231.843648 
L 194.400131 229.857166 
L 194.725111 228.986055 
L 195.05009 229.926566 
L 195.37507 229.554802 
L 195.700049 231.485244 
L 196.025029 229.347844 
L 196.350008 230.738145 
L 196.674988 229.930825 
L 196.999967 231.274106 
L 197.324947 227.343814 
L 197.649926 227.37981 
L 197.974906 231.579564 
L 198.299885 228.906778 
L 198.624865 227.954619 
L 198.949844 229.211718 
L 199.274824 227.643089 
L 199.599803 230.220205 
L 199.924783 229.40783 
L 200.249762 229.587713 
L 200.574742 229.407304 
L 200.899722 229.543999 
L 201.224701 231.611352 
L 201.549681 226.759607 
L 201.87466 228.715486 
L 202.19964 229.826752 
L 202.524619 227.270495 
L 202.849599 226.40237 
L 203.174578 230.27655 
L 203.499558 230.133526 
L 203.824537 226.619646 
L 204.149517 229.791791 
L 204.474496 228.027762 
L 205.124455 226.971847 
L 205.449435 228.595939 
L 205.774414 228.431731 
L 206.099394 227.786161 
L 206.424373 228.121245 
L 206.749353 227.190625 
L 207.074333 227.376226 
L 207.399312 230.621952 
L 207.724292 227.665658 
L 208.049271 228.043221 
L 208.374251 230.166312 
L 208.69923 230.379765 
L 209.02421 229.792216 
L 209.349189 229.526833 
L 209.674169 229.980697 
L 209.999148 228.148948 
L 210.324128 227.647891 
L 210.649107 230.984584 
L 210.974087 227.572517 
L 211.624046 229.169475 
L 211.949025 228.473878 
L 212.274005 230.325417 
L 212.598984 229.019912 
L 212.923964 230.635944 
L 213.248943 228.665642 
L 213.573923 229.667147 
L 213.898903 228.054974 
L 214.223882 228.835402 
L 214.548862 227.726938 
L 214.873841 228.870145 
L 215.198821 230.487558 
L 215.5238 227.304047 
L 215.84878 229.289448 
L 216.173759 226.317344 
L 216.498739 227.343889 
L 216.823718 229.690967 
L 217.148698 230.785559 
L 217.473677 229.643268 
L 217.798657 230.060497 
L 218.123636 229.962492 
L 218.448616 228.716628 
L 218.773595 229.949695 
L 219.098575 229.136544 
L 219.423554 230.71038 
L 219.748534 230.70637 
L 220.073514 228.601266 
L 220.398493 225.756787 
L 221.698411 228.711851 
L 222.023391 230.876515 
L 222.34837 227.994082 
L 222.67335 226.737596 
L 223.323309 225.739658 
L 223.648288 227.816791 
L 223.973268 228.024081 
L 224.298247 225.582358 
L 224.623227 225.258344 
L 224.948206 226.431497 
L 225.273186 226.252828 
L 225.923145 229.5018 
L 226.248124 228.231721 
L 226.573104 229.52123 
L 226.898084 225.930023 
L 227.223063 229.855342 
L 227.548043 229.017944 
L 227.873022 230.000507 
L 228.198002 227.738726 
L 228.522981 226.788669 
L 228.847961 231.2462 
L 229.17294 229.985507 
L 229.822899 229.517631 
L 230.147879 231.948038 
L 230.472858 230.784725 
L 230.797838 235.424373 
L 231.122817 233.688342 
L 231.447797 232.634939 
L 231.772776 232.284768 
L 232.097756 231.663726 
L 232.422735 232.771274 
L 232.747715 234.82185 
L 233.072695 229.009685 
L 233.397674 230.927973 
L 233.722654 231.821919 
L 234.047633 232.047697 
L 234.697592 228.051072 
L 235.022572 228.001626 
L 235.347551 230.367712 
L 235.672531 227.811243 
L 235.99751 229.935166 
L 236.32249 230.363634 
L 236.647469 230.34228 
L 236.972449 229.38364 
L 237.297428 229.300617 
L 237.622408 227.402402 
L 237.947387 226.881274 
L 238.272367 230.131922 
L 238.597346 228.70665 
L 238.922326 228.802745 
L 239.247305 229.651662 
L 239.897265 226.132639 
L 240.222244 230.412486 
L 240.547224 229.331791 
L 240.872203 227.094631 
L 241.197183 228.933381 
L 241.522162 227.575773 
L 241.847142 229.420282 
L 242.172121 229.067943 
L 242.497101 227.998055 
L 242.82208 227.446767 
L 243.14706 231.029539 
L 243.472039 227.928372 
L 243.797019 226.918018 
L 244.121998 229.453553 
L 244.446978 229.514525 
L 244.771957 227.844947 
L 245.096937 227.833705 
L 245.421916 226.730278 
L 245.746896 229.740182 
L 246.071876 226.915806 
L 246.396855 231.082958 
L 246.721835 227.212582 
L 247.046814 229.019405 
L 247.371794 227.156889 
L 247.696773 228.588932 
L 248.021753 227.874177 
L 248.346732 226.821973 
L 248.996691 230.538294 
L 249.321671 228.116778 
L 249.64665 226.758223 
L 249.97163 229.555505 
L 250.296609 226.394548 
L 250.621589 229.811861 
L 250.946568 231.424365 
L 251.271548 230.548569 
L 251.596527 229.041359 
L 251.921507 229.288328 
L 252.246486 226.187393 
L 252.571466 226.978755 
L 252.896446 228.859511 
L 253.221425 227.884406 
L 253.546405 227.295582 
L 253.871384 228.433467 
L 254.196364 228.36947 
L 254.521343 225.929262 
L 255.171302 227.716004 
L 255.496282 226.927602 
L 255.821261 226.807675 
L 256.47122 229.009773 
L 256.7962 226.944957 
L 257.121179 229.050318 
L 257.446159 229.964353 
L 257.771138 226.191026 
L 258.096118 227.290369 
L 258.421097 227.515319 
L 258.746077 227.19732 
L 259.071057 225.326894 
L 259.396036 225.912259 
L 259.721016 227.750191 
L 260.045995 225.681872 
L 260.370975 226.3011 
L 261.020934 227.031518 
L 261.345913 226.155847 
L 261.670893 224.248096 
L 261.995872 226.375105 
L 262.320852 226.685874 
L 262.645831 228.661236 
L 262.970811 226.130836 
L 263.29579 229.184279 
L 263.62077 227.64123 
L 263.945749 228.5398 
L 264.270729 225.878541 
L 264.595708 225.627694 
L 264.920688 228.981609 
L 265.245667 230.827959 
L 265.570647 229.1672 
L 265.895627 228.997407 
L 266.220606 228.426472 
L 266.545586 226.489345 
L 266.870565 227.258649 
L 267.195545 225.705822 
L 267.520524 227.082208 
L 267.845504 226.65551 
L 268.170483 228.475362 
L 268.495463 226.48752 
L 268.820442 227.276128 
L 269.145422 228.723185 
L 269.470401 227.088923 
L 269.795381 226.628433 
L 270.12036 226.77617 
L 270.44534 230.28172 
L 270.770319 227.75933 
L 271.095299 229.624844 
L 271.420278 227.702036 
L 271.745258 229.053735 
L 272.070238 226.78579 
L 272.395217 229.535314 
L 272.720197 229.612542 
L 273.045176 227.253405 
L 273.370156 226.629002 
L 273.695135 228.016789 
L 274.020115 225.928664 
L 274.345094 226.695004 
L 274.670074 225.249303 
L 274.995053 226.482152 
L 275.320033 224.897637 
L 275.645012 226.297687 
L 275.969992 227.179336 
L 276.294971 226.548783 
L 276.619951 226.324106 
L 276.94493 225.178161 
L 277.26991 226.552056 
L 277.594889 226.600139 
L 277.919869 225.271583 
L 278.244848 227.130039 
L 278.569828 227.464996 
L 278.894808 227.500322 
L 279.219787 229.949324 
L 279.544767 227.455431 
L 279.869746 226.702035 
L 280.194726 228.202407 
L 280.519705 223.920615 
L 280.844685 227.592685 
L 281.169664 227.112301 
L 281.494644 225.480168 
L 282.144603 226.701682 
L 282.469582 226.796226 
L 282.794562 224.24527 
L 283.119541 230.036306 
L 283.444521 226.352054 
L 283.7695 227.241629 
L 284.09448 225.936448 
L 284.419459 227.497111 
L 284.744439 227.322748 
L 285.069419 229.542628 
L 285.394398 228.281672 
L 285.719378 227.549511 
L 286.044357 225.523605 
L 286.369337 227.365814 
L 286.694316 227.974564 
L 287.019296 226.397443 
L 287.344275 228.428073 
L 287.669255 228.643806 
L 287.994234 227.953667 
L 288.319214 225.687121 
L 288.644193 229.595954 
L 289.619132 224.983563 
L 289.944111 223.986367 
L 290.59407 226.942995 
L 290.91905 227.987541 
L 291.244029 227.226958 
L 291.569009 225.785255 
L 291.893989 225.517814 
L 292.218968 228.692934 
L 292.543948 224.398153 
L 292.868927 227.187299 
L 293.193907 228.485678 
L 293.518886 224.8152 
L 293.843866 226.055593 
L 294.168845 226.128742 
L 294.493825 229.959361 
L 294.818804 229.965353 
L 295.143784 226.46955 
L 295.468763 226.172263 
L 295.793743 225.611268 
L 296.118722 229.267135 
L 296.443702 226.605663 
L 296.768681 225.897579 
L 297.093661 226.393047 
L 297.41864 227.972537 
L 297.74362 227.48538 
L 298.0686 228.921201 
L 298.718559 226.813081 
L 299.043538 228.779162 
L 299.368518 227.828525 
L 299.693497 224.226394 
L 300.018477 226.663377 
L 300.343456 226.144822 
L 300.668436 222.711061 
L 301.318395 229.390861 
L 301.643374 224.930932 
L 302.293333 229.799907 
L 302.618313 226.978894 
L 302.943292 229.843282 
L 303.268272 226.108756 
L 303.593251 227.811809 
L 303.918231 228.900744 
L 304.24321 227.967592 
L 304.56819 224.694196 
L 305.218149 228.845125 
L 305.543129 227.160527 
L 305.868108 229.230605 
L 306.193088 226.479852 
L 306.518067 227.092726 
L 306.843047 225.651026 
L 307.168026 227.165385 
L 307.493006 231.61148 
L 307.817985 229.015707 
L 308.142965 233.74582 
L 308.467944 233.396293 
L 308.792924 235.242144 
L 309.117903 234.187116 
L 309.442883 231.953061 
L 309.767862 232.792691 
L 310.092842 233.256737 
L 310.417821 228.754778 
L 310.742801 231.711433 
L 311.067781 230.520677 
L 311.39276 228.680096 
L 312.042719 230.076862 
L 312.367699 227.029627 
L 312.692678 230.18945 
L 313.017658 226.763673 
L 313.342637 227.644498 
L 313.667617 227.81083 
L 313.992596 228.134689 
L 314.317576 227.226881 
L 314.642555 229.428656 
L 314.967535 228.639477 
L 315.292514 228.609672 
L 315.617494 226.697923 
L 316.267453 228.605447 
L 316.592432 229.879279 
L 316.917412 229.64262 
L 317.242391 228.682172 
L 317.567371 228.681641 
L 317.892351 228.793663 
L 318.21733 230.232855 
L 318.54231 228.872812 
L 318.867289 229.053426 
L 319.192269 226.273437 
L 319.517248 227.634465 
L 319.842228 228.061261 
L 320.167207 230.566223 
L 320.817166 225.346732 
L 321.142146 228.153618 
L 321.467125 228.055782 
L 321.792105 226.706668 
L 322.117084 226.412718 
L 322.442064 225.850314 
L 322.767043 228.245559 
L 323.092023 227.290352 
L 323.417002 227.813934 
L 323.741982 227.760711 
L 324.066962 226.720457 
L 324.391941 226.85145 
L 324.716921 226.407849 
L 325.0419 230.036953 
L 325.36688 226.633377 
L 325.691859 226.231556 
L 326.016839 226.968699 
L 326.341818 226.035924 
L 326.666798 225.888548 
L 326.991777 226.990101 
L 327.316757 225.39245 
L 327.641736 227.089503 
L 327.966716 226.052858 
L 328.291695 228.196644 
L 328.616675 225.851265 
L 328.941654 228.573272 
L 329.266634 225.481794 
L 329.591613 227.791136 
L 329.916593 226.780713 
L 330.241572 227.222505 
L 330.566552 223.595944 
L 330.891532 226.181445 
L 331.216511 226.248421 
L 331.541491 229.931755 
L 332.19145 224.665675 
L 332.516429 225.259875 
L 332.841409 224.695017 
L 333.166388 227.418218 
L 333.491368 223.574961 
L 333.816347 226.086129 
L 334.141327 223.354095 
L 334.466306 226.870421 
L 334.791286 226.878031 
L 335.441245 224.522452 
L 336.091204 227.850232 
L 336.416183 228.265052 
L 336.741163 229.324966 
L 337.066143 229.92643 
L 337.391122 225.64086 
L 337.716102 226.13385 
L 338.041081 226.22803 
L 338.366061 224.672129 
L 338.69104 227.14827 
L 339.01602 228.530604 
L 339.340999 230.942329 
L 339.665979 228.207808 
L 339.990958 230.773088 
L 340.640917 228.24545 
L 340.965897 229.403726 
L 341.290876 229.78016 
L 341.615856 228.552142 
L 342.265815 227.716899 
L 342.590794 229.095701 
L 342.915774 227.745383 
L 343.240753 224.772415 
L 343.565733 227.587825 
L 343.890713 228.699513 
L 344.215692 227.274851 
L 344.540672 227.796885 
L 344.865651 226.792438 
L 345.190631 227.265492 
L 345.51561 226.752529 
L 345.84059 227.426613 
L 346.165569 228.602011 
L 346.815528 224.043849 
L 347.140508 228.744082 
L 347.465487 224.910445 
L 347.790467 223.995053 
L 348.115446 227.835458 
L 348.440426 228.026456 
L 348.765405 227.61706 
L 349.090385 224.134323 
L 349.415364 229.233376 
L 349.740344 223.926381 
L 350.065324 225.01652 
L 350.390303 227.896362 
L 350.715283 226.731949 
L 351.040262 226.778614 
L 351.365242 226.061537 
L 351.690221 224.750742 
L 352.34018 228.626802 
L 352.66516 226.168365 
L 352.990139 224.767828 
L 353.315119 229.336645 
L 353.640098 225.995484 
L 353.965078 228.728445 
L 354.290057 225.752638 
L 354.615037 224.904904 
L 354.940016 224.517785 
L 355.264996 226.673557 
L 355.589975 224.202106 
L 355.914955 227.396911 
L 356.239934 225.099021 
L 356.564914 225.92364 
L 356.889894 229.744016 
L 357.214873 225.844115 
L 357.864832 229.807233 
L 358.189812 225.888714 
L 358.514791 227.381478 
L 358.839771 226.191783 
L 359.48973 229.446674 
L 359.814709 228.888361 
L 360.139689 223.72802 
L 360.464668 227.833716 
L 360.789648 227.322236 
L 361.114627 226.23224 
L 361.439607 226.042289 
L 361.764586 228.426745 
L 362.089566 226.912189 
L 362.414545 224.778505 
L 362.739525 224.924655 
L 363.064505 227.698587 
L 363.389484 222.653946 
L 363.714464 224.336816 
L 364.039443 227.565778 
L 364.364423 228.950399 
L 364.689402 226.887881 
L 365.014382 226.460875 
L 365.339361 227.622142 
L 365.664341 228.163766 
L 365.98932 224.668462 
L 366.3143 223.475666 
L 366.639279 225.302616 
L 366.964259 226.360261 
L 367.289238 226.470729 
L 367.614218 228.674673 
L 368.264177 222.47227 
L 368.589156 225.980296 
L 368.914136 224.513304 
L 369.239115 227.179344 
L 369.564095 225.319443 
L 369.889075 227.884857 
L 370.214054 226.342242 
L 370.539034 223.606418 
L 370.864013 226.962987 
L 371.188993 226.205124 
L 371.513972 223.567997 
L 371.838952 223.198069 
L 372.163931 226.227307 
L 372.488911 225.668603 
L 372.81389 226.450987 
L 373.13887 225.608946 
L 373.463849 228.464637 
L 373.788829 227.569059 
L 374.113808 229.234615 
L 374.438788 225.599816 
L 374.763767 224.694294 
L 375.413726 227.235413 
L 375.738706 224.240183 
L 376.063686 226.103978 
L 376.388665 224.587728 
L 376.713645 226.367289 
L 377.038624 226.10784 
L 377.363604 228.637084 
L 377.688583 228.792548 
L 378.013563 226.084145 
L 378.338542 228.737827 
L 378.663522 228.735812 
L 378.988501 228.404394 
L 379.313481 228.478613 
L 379.63846 228.868691 
L 379.96344 226.44189 
L 380.288419 226.206449 
L 380.613399 226.242369 
L 380.938378 227.516599 
L 381.263358 226.004903 
L 381.588337 226.367337 
L 381.913317 227.802509 
L 382.238296 226.176588 
L 382.563276 226.780057 
L 382.888256 227.05768 
L 383.213235 225.110751 
L 383.538215 226.737306 
L 383.863194 224.294366 
L 384.188174 227.636246 
L 384.513153 226.515485 
L 384.838133 228.656854 
L 385.163112 225.676295 
L 385.488092 228.7135 
L 385.813071 225.417134 
L 386.138051 228.165804 
L 386.46303 227.401753 
L 386.78801 228.395677 
L 387.112989 225.528106 
L 387.437969 226.088588 
L 387.762948 227.849703 
L 388.087928 226.089211 
L 388.412907 226.294297 
L 388.737887 225.663095 
L 389.062867 226.340022 
L 389.387846 226.665702 
L 389.712826 225.440313 
L 390.037805 226.87822 
L 390.362785 223.255431 
L 390.687764 224.65488 
L 391.012744 228.643901 
L 391.337723 224.059566 
L 391.662703 224.657474 
L 392.312662 228.305122 
L 392.637641 227.909447 
L 392.962621 227.896391 
L 393.2876 226.415576 
L 393.937559 225.100098 
L 394.912498 227.994549 
L 395.237477 227.112323 
L 395.562457 223.945482 
L 395.887437 227.76844 
L 396.212416 225.435802 
L 396.537396 225.56763 
L 396.862375 227.723714 
L 397.512334 224.390059 
L 397.837314 224.430803 
L 398.162293 227.446188 
L 398.487273 226.437243 
L 398.487273 226.437243 
" style="fill:none;stroke:#0000ff;stroke-linecap:square;stroke-width:1.5;"/>
   </g>
   <g id="line2d_24">
    <path clip-path="url(#pfb28152a62)" d="M 73.832727 287.519919 
L 74.157707 282.223861 
L 74.482686 282.223861 
L 74.807666 275.459669 
L 75.132645 275.459669 
L 75.457625 273.022384 
L 75.782604 268.83504 
L 76.107584 266.682986 
L 76.432563 262.32233 
L 76.757543 241.453872 
L 77.732482 221.297027 
L 78.057461 219.667156 
L 78.382441 182.870814 
L 79.0324 182.870814 
L 79.357379 169.880657 
L 80.657297 169.880657 
L 80.982277 157.070264 
L 81.632236 157.070264 
L 81.957215 152.630866 
L 82.932154 152.630866 
L 83.257133 144.85925 
L 83.907093 144.85925 
L 84.232072 139.121608 
L 86.506929 139.121608 
L 86.831908 135.618937 
L 87.156888 135.618937 
L 87.481867 109.322291 
L 88.456806 109.322291 
L 88.781785 108.265555 
L 89.106765 108.265555 
L 89.431744 93.838659 
L 94.306437 93.838659 
L 94.631417 87.575095 
L 95.931335 87.575095 
L 96.256314 83.553052 
L 113.15525 83.553052 
L 113.480229 83.018617 
L 118.029943 83.018617 
L 118.354922 81.336043 
L 141.753448 81.336043 
L 142.078428 79.576055 
L 155.402588 79.576055 
L 155.727568 63.992129 
L 187.250581 63.992129 
L 187.575561 57.061254 
L 215.84878 57.061254 
L 216.173759 54.086005 
L 286.694316 54.086005 
L 287.019296 53.596876 
L 398.487273 53.568 
L 398.487273 53.568 
" style="fill:none;stroke:#ff0000;stroke-linecap:square;stroke-width:1.5;"/>
   </g>
   <g id="patch_3">
    <path d="M 57.6 307.584 
L 57.6 41.472 
" style="fill:none;stroke:#000000;stroke-linecap:square;stroke-linejoin:miter;stroke-width:0.8;"/>
   </g>
   <g id="patch_4">
    <path d="M 414.72 307.584 
L 414.72 41.472 
" style="fill:none;stroke:#000000;stroke-linecap:square;stroke-linejoin:miter;stroke-width:0.8;"/>
   </g>
   <g id="patch_5">
    <path d="M 57.6 307.584 
L 414.72 307.584 
" style="fill:none;stroke:#000000;stroke-linecap:square;stroke-linejoin:miter;stroke-width:0.8;"/>
   </g>
   <g id="patch_6">
    <path d="M 57.6 41.472 
L 414.72 41.472 
" style="fill:none;stroke:#000000;stroke-linecap:square;stroke-linejoin:miter;stroke-width:0.8;"/>
   </g>
   <g id="text_14">
    <!-- Population's average and best fitness -->
    <defs>
     <path d="M 19.671875 64.796875 
L 19.671875 37.40625 
L 32.078125 37.40625 
Q 38.96875 37.40625 42.71875 40.96875 
Q 46.484375 44.53125 46.484375 51.125 
Q 46.484375 57.671875 42.71875 61.234375 
Q 38.96875 64.796875 32.078125 64.796875 
z
M 9.8125 72.90625 
L 32.078125 72.90625 
Q 44.34375 72.90625 50.609375 67.359375 
Q 56.890625 61.8125 56.890625 51.125 
Q 56.890625 40.328125 50.609375 34.8125 
Q 44.34375 29.296875 32.078125 29.296875 
L 19.671875 29.296875 
L 19.671875 0 
L 9.8125 0 
z
" id="DejaVuSans-80"/>
     <path d="M 18.109375 8.203125 
L 18.109375 -20.796875 
L 9.078125 -20.796875 
L 9.078125 54.6875 
L 18.109375 54.6875 
L 18.109375 46.390625 
Q 20.953125 51.265625 25.265625 53.625 
Q 29.59375 56 35.59375 56 
Q 45.5625 56 51.78125 48.09375 
Q 58.015625 40.1875 58.015625 27.296875 
Q 58.015625 14.40625 51.78125 6.484375 
Q 45.5625 -1.421875 35.59375 -1.421875 
Q 29.59375 -1.421875 25.265625 0.953125 
Q 20.953125 3.328125 18.109375 8.203125 
z
M 48.6875 27.296875 
Q 48.6875 37.203125 44.609375 42.84375 
Q 40.53125 48.484375 33.40625 48.484375 
Q 26.265625 48.484375 22.1875 42.84375 
Q 18.109375 37.203125 18.109375 27.296875 
Q 18.109375 17.390625 22.1875 11.75 
Q 26.265625 6.109375 33.40625 6.109375 
Q 40.53125 6.109375 44.609375 11.75 
Q 48.6875 17.390625 48.6875 27.296875 
z
" id="DejaVuSans-112"/>
     <path d="M 8.5 21.578125 
L 8.5 54.6875 
L 17.484375 54.6875 
L 17.484375 21.921875 
Q 17.484375 14.15625 20.5 10.265625 
Q 23.53125 6.390625 29.59375 6.390625 
Q 36.859375 6.390625 41.078125 11.03125 
Q 45.3125 15.671875 45.3125 23.6875 
L 45.3125 54.6875 
L 54.296875 54.6875 
L 54.296875 0 
L 45.3125 0 
L 45.3125 8.40625 
Q 42.046875 3.421875 37.71875 1 
Q 33.40625 -1.421875 27.6875 -1.421875 
Q 18.265625 -1.421875 13.375 4.4375 
Q 8.5 10.296875 8.5 21.578125 
z
M 31.109375 56 
z
" id="DejaVuSans-117"/>
     <path d="M 9.421875 75.984375 
L 18.40625 75.984375 
L 18.40625 0 
L 9.421875 0 
z
" id="DejaVuSans-108"/>
     <path d="M 17.921875 72.90625 
L 17.921875 45.796875 
L 9.625 45.796875 
L 9.625 72.90625 
z
" id="DejaVuSans-39"/>
     <path id="DejaVuSans-32"/>
     <path d="M 2.984375 54.6875 
L 12.5 54.6875 
L 29.59375 8.796875 
L 46.6875 54.6875 
L 56.203125 54.6875 
L 35.6875 0 
L 23.484375 0 
z
" id="DejaVuSans-118"/>
     <path d="M 45.40625 27.984375 
Q 45.40625 37.75 41.375 43.109375 
Q 37.359375 48.484375 30.078125 48.484375 
Q 22.859375 48.484375 18.828125 43.109375 
Q 14.796875 37.75 14.796875 27.984375 
Q 14.796875 18.265625 18.828125 12.890625 
Q 22.859375 7.515625 30.078125 7.515625 
Q 37.359375 7.515625 41.375 12.890625 
Q 45.40625 18.265625 45.40625 27.984375 
z
M 54.390625 6.78125 
Q 54.390625 -7.171875 48.1875 -13.984375 
Q 42 -20.796875 29.203125 -20.796875 
Q 24.46875 -20.796875 20.265625 -20.09375 
Q 16.0625 -19.390625 12.109375 -17.921875 
L 12.109375 -9.1875 
Q 16.0625 -11.328125 19.921875 -12.34375 
Q 23.78125 -13.375 27.78125 -13.375 
Q 36.625 -13.375 41.015625 -8.765625 
Q 45.40625 -4.15625 45.40625 5.171875 
L 45.40625 9.625 
Q 42.625 4.78125 38.28125 2.390625 
Q 33.9375 0 27.875 0 
Q 17.828125 0 11.671875 7.65625 
Q 5.515625 15.328125 5.515625 27.984375 
Q 5.515625 40.671875 11.671875 48.328125 
Q 17.828125 56 27.875 56 
Q 33.9375 56 38.28125 53.609375 
Q 42.625 51.21875 45.40625 46.390625 
L 45.40625 54.6875 
L 54.390625 54.6875 
z
" id="DejaVuSans-103"/>
     <path d="M 45.40625 46.390625 
L 45.40625 75.984375 
L 54.390625 75.984375 
L 54.390625 0 
L 45.40625 0 
L 45.40625 8.203125 
Q 42.578125 3.328125 38.25 0.953125 
Q 33.9375 -1.421875 27.875 -1.421875 
Q 17.96875 -1.421875 11.734375 6.484375 
Q 5.515625 14.40625 5.515625 27.296875 
Q 5.515625 40.1875 11.734375 48.09375 
Q 17.96875 56 27.875 56 
Q 33.9375 56 38.25 53.625 
Q 42.578125 51.265625 45.40625 46.390625 
z
M 14.796875 27.296875 
Q 14.796875 17.390625 18.875 11.75 
Q 22.953125 6.109375 30.078125 6.109375 
Q 37.203125 6.109375 41.296875 11.75 
Q 45.40625 17.390625 45.40625 27.296875 
Q 45.40625 37.203125 41.296875 42.84375 
Q 37.203125 48.484375 30.078125 48.484375 
Q 22.953125 48.484375 18.875 42.84375 
Q 14.796875 37.203125 14.796875 27.296875 
z
" id="DejaVuSans-100"/>
     <path d="M 48.6875 27.296875 
Q 48.6875 37.203125 44.609375 42.84375 
Q 40.53125 48.484375 33.40625 48.484375 
Q 26.265625 48.484375 22.1875 42.84375 
Q 18.109375 37.203125 18.109375 27.296875 
Q 18.109375 17.390625 22.1875 11.75 
Q 26.265625 6.109375 33.40625 6.109375 
Q 40.53125 6.109375 44.609375 11.75 
Q 48.6875 17.390625 48.6875 27.296875 
z
M 18.109375 46.390625 
Q 20.953125 51.265625 25.265625 53.625 
Q 29.59375 56 35.59375 56 
Q 45.5625 56 51.78125 48.09375 
Q 58.015625 40.1875 58.015625 27.296875 
Q 58.015625 14.40625 51.78125 6.484375 
Q 45.5625 -1.421875 35.59375 -1.421875 
Q 29.59375 -1.421875 25.265625 0.953125 
Q 20.953125 3.328125 18.109375 8.203125 
L 18.109375 0 
L 9.078125 0 
L 9.078125 75.984375 
L 18.109375 75.984375 
z
" id="DejaVuSans-98"/>
     <path d="M 37.109375 75.984375 
L 37.109375 68.5 
L 28.515625 68.5 
Q 23.6875 68.5 21.796875 66.546875 
Q 19.921875 64.59375 19.921875 59.515625 
L 19.921875 54.6875 
L 34.71875 54.6875 
L 34.71875 47.703125 
L 19.921875 47.703125 
L 19.921875 0 
L 10.890625 0 
L 10.890625 47.703125 
L 2.296875 47.703125 
L 2.296875 54.6875 
L 10.890625 54.6875 
L 10.890625 58.5 
Q 10.890625 67.625 15.140625 71.796875 
Q 19.390625 75.984375 28.609375 75.984375 
z
" id="DejaVuSans-102"/>
    </defs>
    <g transform="translate(123.315 35.472)scale(0.12 -0.12)">
     <use xlink:href="#DejaVuSans-80"/>
     <use x="60.255859" xlink:href="#DejaVuSans-111"/>
     <use x="121.4375" xlink:href="#DejaVuSans-112"/>
     <use x="184.914062" xlink:href="#DejaVuSans-117"/>
     <use x="248.292969" xlink:href="#DejaVuSans-108"/>
     <use x="276.076172" xlink:href="#DejaVuSans-97"/>
     <use x="337.355469" xlink:href="#DejaVuSans-116"/>
     <use x="376.564453" xlink:href="#DejaVuSans-105"/>
     <use x="404.347656" xlink:href="#DejaVuSans-111"/>
     <use x="465.529297" xlink:href="#DejaVuSans-110"/>
     <use x="528.908203" xlink:href="#DejaVuSans-39"/>
     <use x="556.398438" xlink:href="#DejaVuSans-115"/>
     <use x="608.498047" xlink:href="#DejaVuSans-32"/>
     <use x="640.285156" xlink:href="#DejaVuSans-97"/>
     <use x="701.564453" xlink:href="#DejaVuSans-118"/>
     <use x="760.744141" xlink:href="#DejaVuSans-101"/>
     <use x="822.267578" xlink:href="#DejaVuSans-114"/>
     <use x="863.380859" xlink:href="#DejaVuSans-97"/>
     <use x="924.660156" xlink:href="#DejaVuSans-103"/>
     <use x="988.136719" xlink:href="#DejaVuSans-101"/>
     <use x="1049.660156" xlink:href="#DejaVuSans-32"/>
     <use x="1081.447266" xlink:href="#DejaVuSans-97"/>
     <use x="1142.726562" xlink:href="#DejaVuSans-110"/>
     <use x="1206.105469" xlink:href="#DejaVuSans-100"/>
     <use x="1269.582031" xlink:href="#DejaVuSans-32"/>
     <use x="1301.369141" xlink:href="#DejaVuSans-98"/>
     <use x="1364.845703" xlink:href="#DejaVuSans-101"/>
     <use x="1426.369141" xlink:href="#DejaVuSans-115"/>
     <use x="1478.46875" xlink:href="#DejaVuSans-116"/>
     <use x="1517.677734" xlink:href="#DejaVuSans-32"/>
     <use x="1549.464844" xlink:href="#DejaVuSans-102"/>
     <use x="1584.669922" xlink:href="#DejaVuSans-105"/>
     <use x="1612.453125" xlink:href="#DejaVuSans-116"/>
     <use x="1651.662109" xlink:href="#DejaVuSans-110"/>
     <use x="1715.041016" xlink:href="#DejaVuSans-101"/>
     <use x="1776.564453" xlink:href="#DejaVuSans-115"/>
     <use x="1828.664062" xlink:href="#DejaVuSans-115"/>
    </g>
   </g>
   <g id="legend_1">
    <g id="patch_7">
     <path d="M 64.6 78.82825 
L 137.540625 78.82825 
Q 139.540625 78.82825 139.540625 76.82825 
L 139.540625 48.472 
Q 139.540625 46.472 137.540625 46.472 
L 64.6 46.472 
Q 62.6 46.472 62.6 48.472 
L 62.6 76.82825 
Q 62.6 78.82825 64.6 78.82825 
z
" style="fill:#ffffff;opacity:0.8;stroke:#cccccc;stroke-linejoin:miter;"/>
    </g>
    <g id="line2d_25">
     <path d="M 66.6 54.570437 
L 86.6 54.570437 
" style="fill:none;stroke:#0000ff;stroke-linecap:square;stroke-width:1.5;"/>
    </g>
    <g id="line2d_26"/>
    <g id="text_15">
     <!-- average -->
     <g transform="translate(94.6 58.070437)scale(0.1 -0.1)">
      <use xlink:href="#DejaVuSans-97"/>
      <use x="61.279297" xlink:href="#DejaVuSans-118"/>
      <use x="120.458984" xlink:href="#DejaVuSans-101"/>
      <use x="181.982422" xlink:href="#DejaVuSans-114"/>
      <use x="223.095703" xlink:href="#DejaVuSans-97"/>
      <use x="284.375" xlink:href="#DejaVuSans-103"/>
      <use x="347.851562" xlink:href="#DejaVuSans-101"/>
     </g>
    </g>
    <g id="line2d_27">
     <path d="M 66.6 69.248562 
L 86.6 69.248562 
" style="fill:none;stroke:#ff0000;stroke-linecap:square;stroke-width:1.5;"/>
    </g>
    <g id="line2d_28"/>
    <g id="text_16">
     <!-- best -->
     <g transform="translate(94.6 72.748562)scale(0.1 -0.1)">
      <use xlink:href="#DejaVuSans-98"/>
      <use x="63.476562" xlink:href="#DejaVuSans-101"/>
      <use x="125" xlink:href="#DejaVuSans-115"/>
      <use x="177.099609" xlink:href="#DejaVuSans-116"/>
     </g>
    </g>
   </g>
  </g>
 </g>
 <defs>
  <clipPath id="pfb28152a62">
   <rect height="266.112" width="357.12" x="57.6" y="41.472"/>
  </clipPath>
 </defs>
</svg>
